<svg width="1920" height="1080" viewBox="0 0 1920 1080" fill="none" xmlns="http://www.w3.org/2000/svg">
<g clip-path="url(#clip0_1_8)">
<rect width="1920" height="1080" fill="url(#paint0_linear_1_8)"/>
<path d="M1711.39 78.5607L1707.29 84.1361V97.1457L1706.92 112.757L1708.04 124.651L1709.81 130.949L1715.48 137.126L1724.51 145.618L1734.37 156.683L1739.23 160.018L1745.92 159.258L1765.01 155.398L1784.62 149.993L1803.71 146.905L1818.67 142.015L1827.18 139.699L1833.37 133.78L1834.66 123.743L1833.89 106.758L1834.66 87.4559L1833.63 80.2499L1825.12 74.0734L1814.8 66.3526L1805.51 59.6614L1799.06 56.573L1792.36 56.3159L1783.07 59.4041L1767.08 62.235L1752.11 65.8379L1740.51 68.9261L1730.7 71.7572L1718.1 75.2153L1711.39 78.5607Z" fill="white"/>
<path fill-rule="evenodd" clip-rule="evenodd" d="M1824.23 80.6971C1827.91 79.8086 1831.19 80.8426 1833.27 83.159C1834.68 84.7407 1835.53 86.9156 1835.56 89.4852L1836 128.474C1836.07 134.818 1831.11 141.18 1824.93 142.674L1746.47 161.636C1740.29 163.129 1735.21 159.191 1735.14 152.848L1734.7 113.858C1734.63 107.514 1739.59 101.152 1745.77 99.6581L1788.87 89.2421L1801.82 86.1122L1824.23 80.6971ZM1764.12 132.968C1763.38 132.95 1762.64 133.026 1761.9 133.193C1760.03 133.616 1758.52 134.567 1757.36 136.047C1756.21 137.527 1755.63 139.274 1755.63 141.287C1755.63 143.337 1756.19 144.772 1757.31 145.59C1758.43 146.408 1759.88 146.615 1761.65 146.214C1763.54 145.787 1764.91 144.965 1765.76 143.748C1766.61 142.531 1767.1 141.353 1767.23 140.216L1764.73 140.309C1764.42 142.264 1763.49 143.417 1761.93 143.768C1759.8 144.25 1758.74 143.142 1758.74 140.446C1758.74 137.676 1759.77 136.056 1761.85 135.588C1762.61 135.416 1763.33 135.419 1764.01 135.597L1764.43 137.553L1766.82 136.764L1766.32 133.387C1765.6 133.125 1764.86 132.985 1764.12 132.968ZM1788.61 128.237C1787.76 127.709 1786.77 127.573 1785.64 127.828C1784.63 128.058 1783.76 128.506 1783.06 129.173C1782.36 129.84 1781.82 130.64 1781.45 131.573C1781.15 130.68 1780.64 130.091 1779.9 129.806C1779.15 129.521 1778.32 129.482 1777.4 129.691C1776.47 129.901 1775.68 130.291 1775.04 130.862C1774.39 131.433 1773.87 132.105 1773.48 132.876V130.825L1768.68 131.911V134.211L1770.51 133.796V141.664L1768.65 142.084V144.355L1775.81 142.737V140.465L1773.48 140.992V136.117C1773.5 135.263 1773.74 134.456 1774.2 133.696C1774.67 132.936 1775.38 132.447 1776.34 132.229C1777.08 132.062 1777.66 132.176 1778.08 132.571C1778.49 132.966 1778.7 133.755 1778.7 134.937V139.812L1778.03 139.964V142.235L1783.53 140.992V138.721L1781.67 139.141V134.294C1781.69 133.44 1781.93 132.629 1782.38 131.862C1782.83 131.095 1783.55 130.599 1784.53 130.378C1785.29 130.206 1785.88 130.319 1786.3 130.714C1786.71 131.109 1786.92 131.898 1786.92 133.08V137.955L1786.23 138.112V140.384L1791.72 139.141V136.87L1789.89 137.284V131.328C1789.89 129.795 1789.47 128.765 1788.61 128.237ZM1799.75 118.268V120.54L1802.44 119.932V126.22C1802.07 125.639 1801.55 125.226 1800.87 124.981C1800.2 124.737 1799.37 124.726 1798.39 124.948C1796.46 125.383 1795.05 126.38 1794.15 127.94C1793.26 129.5 1792.81 131.167 1792.81 132.94C1792.81 134.879 1793.28 136.296 1794.24 137.188C1795.19 138.081 1796.48 138.344 1798.11 137.975C1799.24 137.72 1800.15 137.25 1800.85 136.567C1801.54 135.884 1802.07 135.14 1802.44 134.337V136.72L1807.25 135.634V133.362L1805.41 133.776V116.989L1799.75 118.268ZM1799.25 127.136C1800.14 126.935 1800.89 127.07 1801.5 127.542C1802.11 128.013 1802.42 128.764 1802.44 129.794V130.735C1802.42 131.663 1802.11 132.612 1801.5 133.581C1800.89 134.55 1800.07 135.15 1799.06 135.38C1798.19 135.576 1797.44 135.402 1796.82 134.859C1796.2 134.316 1795.89 133.389 1795.89 132.078C1795.89 130.785 1796.2 129.695 1796.82 128.807C1797.44 127.918 1798.25 127.361 1799.25 127.136ZM1825.93 112.282C1825.34 112.277 1824.76 112.34 1824.18 112.47C1822.72 112.8 1821.56 113.533 1820.71 114.667C1819.86 115.801 1819.44 117.042 1819.44 118.39V120.44L1817.8 120.811V123L1819.44 122.63V130.607L1817.58 131.028V133.3L1824.74 131.681V129.409L1822.38 129.942V121.964L1825.52 121.255V119.066L1822.38 119.775V117.31C1822.38 115.87 1822.95 115.02 1824.1 114.761C1824.49 114.673 1824.87 114.652 1825.24 114.697L1825.82 116.588L1828.15 115.783L1827.63 112.717C1827.09 112.432 1826.53 112.287 1825.93 112.282ZM1808.97 127.544V130.037L1815.52 128.556V126.062L1808.97 127.544ZM1761.47 106.71C1761.47 104.529 1759.65 103.22 1757.45 103.812C1755.25 104.405 1753.43 106.689 1753.43 108.87V110.195L1750.76 110.916V109.59C1750.76 107.409 1748.94 106.1 1746.74 106.692C1744.54 107.284 1742.72 109.568 1742.72 111.749C1742.72 113.93 1744.54 115.239 1746.74 114.647L1748.08 114.287V116.938L1746.74 117.299C1744.54 117.891 1742.72 120.175 1742.72 122.355C1742.72 124.536 1744.54 125.846 1746.74 125.254C1748.94 124.662 1750.76 122.377 1750.76 120.196V118.87L1753.43 118.15V119.476C1753.43 121.657 1755.25 122.966 1757.45 122.374C1759.65 121.782 1761.47 119.497 1761.47 117.316C1761.47 115.136 1759.65 113.827 1757.45 114.419L1756.11 114.779V112.128L1757.45 111.767C1759.65 111.175 1761.47 108.891 1761.47 106.71Z" fill="#0D1D55"/>
<path d="M1746.74 109.771C1747.5 109.568 1748.08 109.988 1748.08 110.737V112.063L1746.74 112.423C1745.98 112.626 1745.4 112.206 1745.4 111.457C1745.4 110.708 1745.98 109.974 1746.74 109.771Z" fill="#0D1D55"/>
<path d="M1757.45 106.75C1758.21 106.546 1758.79 106.966 1758.79 107.716C1758.79 108.465 1758.21 109.198 1757.45 109.401L1756.11 109.761V108.435C1756.11 107.686 1756.69 106.953 1757.45 106.75Z" fill="#0D1D55"/>
<path d="M1750.78 113.728L1753.45 113.008V115.66L1750.78 116.38V113.728Z" fill="#0D1D55"/>
<path d="M1746.74 119.95L1748.08 119.59V120.916C1748.08 121.665 1747.5 122.399 1746.74 122.602C1745.98 122.805 1745.4 122.385 1745.4 121.636C1745.4 120.887 1745.98 120.154 1746.74 119.95Z" fill="#0D1D55"/>
<path d="M1756.11 117.439L1757.45 117.079C1758.21 116.876 1758.79 117.296 1758.79 118.045C1758.79 118.794 1758.21 119.528 1757.45 119.731C1756.69 119.934 1756.11 119.514 1756.11 118.765V117.439Z" fill="#0D1D55"/>
<path fill-rule="evenodd" clip-rule="evenodd" d="M1795.65 54.0164C1795.31 54.0329 1794.54 54.1238 1794.09 54.1983C1793.72 54.2597 1789.66 55.2205 1773.27 59.1226C1772.13 59.3942 1759.36 62.4352 1744.88 65.8804C1730.41 69.3255 1718.35 72.208 1718.08 72.2858C1716.64 72.7072 1715.08 73.4174 1713.92 74.1757C1711.04 76.0618 1708.79 78.6048 1707.38 81.5838C1706.44 83.5599 1705.95 85.3798 1705.8 87.4719C1705.77 87.8292 1705.81 91.9908 1705.97 106.132C1706.08 116.142 1706.18 124.731 1706.2 125.218C1706.22 125.705 1706.26 126.261 1706.28 126.454C1706.59 128.867 1707.49 130.974 1708.94 132.711C1709.33 133.177 1711.31 135.161 1712.1 135.87C1712.85 136.555 1714.59 138.27 1716.52 140.227C1718.25 141.982 1719.7 143.489 1723.15 147.094C1723.65 147.615 1724.36 148.356 1724.73 148.741C1725.09 149.126 1725.91 149.986 1726.55 150.653C1727.18 151.319 1727.86 152.032 1728.06 152.237C1728.26 152.443 1728.82 153.03 1729.31 153.542C1730.86 155.163 1732.36 156.721 1732.53 156.874C1732.62 156.956 1732.98 157.288 1733.32 157.613C1734.19 158.437 1734.82 159.004 1735.22 159.322C1736.37 160.232 1737.99 161.068 1739.29 161.42C1740.17 161.658 1740.9 161.747 1742.76 161.841L1743.15 161.861V160.558V159.255L1742.91 159.269C1742.56 159.289 1741.79 159.226 1741.31 159.137C1739.99 158.895 1738.6 158.249 1737.33 157.293C1736.23 156.473 1735.15 155.422 1734.13 154.179C1733.85 153.849 1726.32 145.926 1725.05 144.639C1724.61 144.185 1722.48 142.018 1720.33 139.822C1718.18 137.626 1716.06 135.466 1715.62 135.022C1712.59 131.956 1712.12 131.447 1711.42 130.485C1710.43 129.127 1710.07 128.41 1709.78 127.222C1709.58 126.434 1709.51 125.851 1709.49 124.721C1709.48 124.251 1709.38 115.806 1709.27 105.955C1709.06 87.42 1709.07 87.7769 1709.18 86.8566C1709.45 84.7301 1710.44 82.3809 1711.85 80.5174C1712.34 79.8629 1712.64 79.5191 1713.27 78.8985C1714.61 77.5518 1715.91 76.6572 1717.54 75.9412C1718.04 75.724 1719.03 75.3882 1719.52 75.2696C1719.9 75.177 1792.94 57.786 1793.79 57.5846C1794.78 57.351 1795.21 57.2934 1796.16 57.2682C1796.88 57.2492 1797.32 57.2754 1797.89 57.3703C1798.65 57.4958 1799.46 57.7535 1800.14 58.0836C1801.2 58.6041 1803.33 59.7971 1804.24 60.3827C1804.41 60.4893 1808 63.0836 1812.22 66.1478C1823.11 74.0418 1824.25 74.8709 1827.65 77.3576C1830.5 79.4341 1830.72 79.6046 1831.11 79.9856C1831.81 80.6709 1832.26 81.2738 1832.6 81.9779C1832.99 82.7848 1833.06 83.1132 1833.14 84.4017C1833.2 85.2972 1833.24 88.0241 1833.21 89.5679L1833.19 91.0361L1833.27 91.0367C1833.31 91.037 1833.81 91.0782 1834.39 91.1283C1834.96 91.1783 1835.44 91.2119 1835.45 91.2028C1835.46 91.1938 1835.47 89.8206 1835.47 88.1514C1835.48 85.6049 1835.48 85.0139 1835.43 84.4794C1835.24 81.9481 1834.91 80.5068 1834.28 79.3757C1833.84 78.5819 1833.26 77.859 1832.63 77.3011C1832.46 77.1559 1832.28 76.997 1832.23 76.9481C1831.78 76.5446 1829.48 74.8028 1826.91 72.9199C1826.66 72.7381 1826.08 72.3118 1825.61 71.9726C1824.25 70.9737 1819.23 67.3301 1817.61 66.1613C1816.14 65.1005 1813.48 63.1742 1813.17 62.9446C1813.02 62.8311 1812.64 62.5568 1812.33 62.3349C1812.02 62.113 1811.14 61.4768 1810.38 60.9211C1809.62 60.3654 1808.73 59.7169 1808.4 59.4801C1807.36 58.7274 1806.35 57.9565 1806.11 57.7391C1805.44 57.135 1804.29 56.4309 1802.73 55.6735C1800.75 54.7095 1799.66 54.3404 1798.14 54.1222C1797.38 54.013 1796.48 53.9749 1795.65 54.0164Z" fill="#0D1D55"/>
<path opacity="0.25" d="M152.971 422C283.846 422 389.942 482.793 389.942 557.784C389.942 558.72 389.924 559.654 389.892 560.585C397.883 559.705 406.135 559.244 414.574 559.244C486.345 559.244 544.526 592.583 544.526 633.707C544.526 637.828 543.94 641.871 542.816 645.81C554.618 641.536 568.603 639.061 583.596 639.061C609.306 639.061 632.052 646.334 645.909 657.485C654.987 652.695 667.108 649.768 680.422 649.768C690.727 649.768 700.318 651.523 708.336 654.536C712.45 640.774 733.371 630.3 758.562 630.3C780.616 630.3 799.396 638.328 806.493 649.562C829.199 630.861 866.981 618.62 909.753 618.62C917.911 618.62 925.888 619.065 933.613 619.916C933.559 618.839 933.531 617.758 933.531 616.673C933.531 555.927 1019.47 506.683 1125.49 506.683C1204.95 506.683 1273.13 534.348 1302.3 573.785C1317.08 570.676 1333.05 568.979 1349.72 568.979C1378.51 568.979 1405.24 574.048 1427.34 582.713C1447.54 553.569 1497.2 532.964 1555.26 532.964C1581.18 532.964 1605.42 537.07 1626.12 544.208C1661.09 502.98 1734.88 474.562 1820.26 474.562C1939.41 474.562 2036 529.907 2036 598.179C2036 631.212 2013.38 661.219 1976.54 683.395V1069.29H-7.55859V661.448H-0.0898438C-51.4168 636.541 -84 599.343 -84 557.784C-83.9999 482.793 22.0954 422 152.971 422Z" fill="#92D8FF"/>
<path opacity="0.25" d="M1799.03 603C1668.15 603 1562.06 659.284 1562.06 728.714C1562.06 729.58 1562.08 730.444 1562.11 731.307C1554.12 730.491 1545.87 730.065 1537.43 730.065C1465.66 730.065 1407.47 760.931 1407.47 799.006C1407.47 802.821 1408.06 806.563 1409.18 810.21C1397.38 806.253 1383.4 803.962 1368.4 803.962C1342.69 803.962 1319.95 810.696 1306.09 821.021C1297.01 816.585 1284.89 813.875 1271.58 813.875C1261.27 813.875 1251.68 815.499 1243.66 818.289C1239.55 805.548 1218.63 795.852 1193.44 795.852C1171.38 795.852 1152.6 803.284 1145.51 813.685C1122.8 796.371 1085.02 785.038 1042.25 785.038C1034.09 785.038 1026.11 785.45 1018.39 786.237C1018.44 785.24 1018.47 784.239 1018.47 783.235C1018.47 726.995 932.528 681.402 826.514 681.402C747.054 681.402 678.87 707.016 649.699 743.528C634.917 740.649 618.945 739.078 602.281 739.078C573.484 739.078 546.754 743.773 524.658 751.796C504.454 724.813 454.794 705.734 396.733 705.734C370.819 705.734 346.578 709.536 325.882 716.144C290.908 677.974 217.116 651.663 131.74 651.663C12.5922 651.663 -83.9968 702.904 -83.9971 766.112C-83.9971 796.694 -61.386 824.474 -24.5498 845.005V1202.28H1959.55V824.689H1952.09C2003.42 801.629 2036 767.19 2036 728.714C2036 659.284 1929.9 603 1799.03 603Z" fill="#89CDFF"/>
<path d="M-52 984.646C-52 984.646 568.869 904.829 979.134 905C1385.58 905.17 2036 984.646 2036 984.646V1281C2036 1281 1597.32 1179.61 979.134 1179.61C360.944 1179.61 -52 1281 -52 1281V984.646Z" fill="url(#paint1_linear_1_8)"/>
<path d="M-52 984.646C-52 984.646 568.869 904.829 979.134 905C1385.58 905.17 2036 984.646 2036 984.646V1281C2036 1281 1597.32 1179.61 979.134 1179.61C360.944 1179.61 -52 1281 -52 1281V984.646Z" fill="url(#paint2_linear_1_8)"/>
<g opacity="0.3">
<ellipse cx="1766.15" cy="1027.27" rx="112.893" ry="17.5977" transform="rotate(12.4844 1766.15 1027.27)" fill="#68BF82" style="mix-blend-mode:multiply"/>
</g>
<path d="M1781.74 793.053C1776.36 789.261 1765.56 788.334 1765.56 788.334C1765.56 788.334 1724.59 770.565 1717.22 787.947C1715.98 790.867 1713.96 792.929 1715.25 795.825C1716.71 799.093 1721.78 796.26 1723.75 799.242C1725.11 801.293 1723.62 803.343 1724.91 805.439C1726.73 808.386 1729.35 808.863 1732.73 809.609C1736.28 810.392 1738.43 808.303 1742 808.971C1746.25 809.769 1747.82 812.428 1751.78 814.184C1766.31 820.639 1785.78 834.929 1792.03 820.306C1796.5 809.844 1791.03 799.61 1781.74 793.053Z" fill="#9849BD"/>
<mask id="mask0_1_8" style="mask-type:alpha" maskUnits="userSpaceOnUse" x="1714" y="780" width="80" height="47">
<path d="M1781.74 793.053C1776.36 789.261 1765.56 788.334 1765.56 788.334C1765.56 788.334 1724.59 770.565 1717.22 787.947C1715.99 790.867 1713.96 792.929 1715.25 795.825C1716.71 799.093 1721.78 796.26 1723.75 799.242C1725.12 801.294 1723.62 803.343 1724.91 805.439C1726.73 808.386 1729.35 808.863 1732.73 809.609C1736.28 810.392 1738.44 808.303 1742 808.971C1746.25 809.769 1747.82 812.428 1751.78 814.184C1766.31 820.639 1785.78 834.929 1792.03 820.306C1796.51 809.844 1791.03 799.61 1781.74 793.053Z" fill="#9849BD"/>
</mask>
<g mask="url(#mask0_1_8)">
<path fill-rule="evenodd" clip-rule="evenodd" d="M1769.92 799.093C1768.93 799.059 1768.86 797.632 1769.65 797.042C1770.17 796.659 1770.65 796.211 1771.07 795.697C1774.16 791.955 1773.33 786.172 1769.22 782.78C1767.61 781.447 1765.73 780.682 1763.85 780.47C1762.9 780.363 1762.34 779.172 1763.18 778.702C1766.97 776.577 1772.09 777.038 1775.94 780.213C1780.81 784.238 1781.79 791.099 1778.13 795.538C1776.09 798.003 1773.05 799.203 1769.92 799.093Z" fill="#DC76DE"/>
<path fill-rule="evenodd" clip-rule="evenodd" d="M1774.69 804.68C1773.79 804.269 1774.26 802.961 1775.23 802.757C1775.97 802.599 1776.71 802.344 1777.43 801.988C1782.06 799.673 1783.89 793.932 1781.51 789.165C1780.58 787.313 1779.16 785.881 1777.49 784.957C1776.64 784.484 1776.59 783.13 1777.56 783.014C1782.14 782.467 1786.83 784.877 1789.06 789.35C1791.89 795.006 1789.72 801.817 1784.22 804.564C1781.13 806.108 1777.65 806.039 1774.69 804.68Z" fill="#DC76DE"/>
<path fill-rule="evenodd" clip-rule="evenodd" d="M1780.3 811.152C1779.53 810.533 1780.31 809.382 1781.3 809.422C1782.06 809.453 1782.84 809.389 1783.62 809.22C1788.68 808.12 1791.87 803.008 1790.74 797.801C1790.3 795.778 1789.27 794.038 1787.88 792.732C1787.17 792.063 1787.46 790.739 1788.43 790.866C1793.01 791.466 1796.95 794.959 1798.02 799.846C1799.36 806.024 1795.57 812.089 1789.57 813.394C1786.19 814.127 1782.83 813.201 1780.3 811.152Z" fill="#DC76DE"/>
</g>
<path d="M1712.26 791.655C1713.36 790.723 1714.46 791.097 1715.84 791.339C1718.75 791.849 1720.94 793.584 1721.37 796.511C1721.54 797.656 1721.84 798.583 1721.07 799.461C1720.47 800.155 1718.92 800.311 1718.92 800.311C1718.92 800.311 1716.79 800.693 1716.23 799.767C1715.81 799.056 1716.33 797.596 1716.33 797.596C1716.33 797.596 1714.43 798.322 1713.79 797.574C1713.27 796.971 1713.62 795.488 1713.62 795.488C1713.62 795.488 1711.76 795.666 1711.19 794.859C1710.46 793.816 1711.27 792.508 1712.26 791.655Z" fill="#DC76DE"/>
<path d="M1723.04 801.797C1724.13 800.865 1725.23 801.239 1726.61 801.48C1729.52 801.99 1731.71 803.726 1732.14 806.653C1732.31 807.798 1732.61 808.725 1731.85 809.603C1731.24 810.297 1729.69 810.453 1729.69 810.453C1729.69 810.453 1727.56 810.834 1727.01 809.908C1726.58 809.197 1727.1 807.738 1727.1 807.738C1727.1 807.738 1725.21 808.464 1724.56 807.716C1724.04 807.113 1724.4 805.63 1724.4 805.63C1724.4 805.63 1722.54 805.807 1721.97 805.001C1721.23 803.958 1722.04 802.65 1723.04 801.797Z" fill="#DC76DE"/>
<mask id="mask1_1_8" style="mask-type:alpha" maskUnits="userSpaceOnUse" x="1643" y="797" width="153" height="99">
<path fill-rule="evenodd" clip-rule="evenodd" d="M1643.85 845.004C1643.43 837.28 1692.89 790.132 1735.57 798.216C1788.34 808.212 1797.14 869.873 1794.97 883.809C1795.01 884.035 1795.03 884.259 1795.05 884.483C1794.94 884.697 1794.82 884.907 1794.7 885.114C1794.69 885.144 1794.68 885.175 1794.68 885.204C1794.64 885.311 1794.58 885.405 1794.48 885.487C1784.41 901.66 1744.4 893.974 1711.5 887.419C1681.77 881.498 1640.57 863.474 1643.85 845.004Z" fill="#FD9065"/>
</mask>
<g mask="url(#mask1_1_8)">
<path fill-rule="evenodd" clip-rule="evenodd" d="M1643.85 845.004C1643.43 837.28 1692.89 790.132 1735.57 798.216C1788.34 808.212 1797.14 869.873 1794.97 883.809C1795.01 884.035 1795.03 884.259 1795.05 884.483C1794.94 884.697 1794.82 884.907 1794.7 885.114C1794.69 885.144 1794.68 885.175 1794.68 885.204C1794.64 885.311 1794.58 885.405 1794.48 885.487C1784.41 901.66 1744.4 893.974 1711.5 887.419C1681.77 881.498 1640.57 863.474 1643.85 845.004Z" fill="#E64B73"/>
<path fill-rule="evenodd" clip-rule="evenodd" d="M1643.85 845.004C1643.43 837.28 1692.89 790.132 1735.57 798.216C1788.34 808.212 1797.14 869.873 1794.97 883.809C1795.01 884.035 1795.03 884.259 1795.05 884.483C1794.94 884.697 1794.82 884.907 1794.7 885.114C1794.69 885.144 1794.68 885.175 1794.68 885.204C1794.64 885.311 1794.58 885.405 1794.48 885.487C1784.41 901.66 1744.4 893.974 1711.5 887.419C1681.77 881.498 1640.57 863.474 1643.85 845.004Z" fill="url(#paint3_radial_1_8)"/>
<path d="M1608.5 878.335C1717.26 894.57 1782.39 831.357 1780.82 818.693L1807.75 887.999L1740.51 913.729L1588.76 894.812C1550.03 882.555 1499.75 862.1 1608.5 878.335Z" fill="#C63359"/>
</g>
<path d="M1765.34 831.525C1762.44 836.56 1754.76 836.76 1748.33 833.058C1741.91 829.355 1739.17 823.153 1742.07 818.118C1744.97 813.083 1753.01 812.033 1759.44 815.735C1765.87 819.437 1768.25 826.49 1765.34 831.525Z" fill="#F1E9FF"/>
<path d="M1677.73 825.857C1679.27 830.17 1685.04 831.457 1690.36 829.549C1695.68 827.642 1698.53 823.261 1696.98 818.949C1695.43 814.637 1689.5 812.64 1684.19 814.548C1678.87 816.456 1676.18 821.545 1677.73 825.857Z" fill="#F1E9FF"/>
<path d="M1664.92 832.041C1665.82 833.874 1664.34 836.176 1661.95 837.349C1659.56 838.522 1657.18 838.121 1656.28 836.287C1655.38 834.454 1656.69 831.881 1659.08 830.709C1661.46 829.536 1664.02 830.207 1664.92 832.041Z" fill="#F1E9FF"/>
<path d="M1718.82 805.475C1718.84 807.427 1721.32 808.742 1724.11 808.707C1726.9 808.671 1728.93 807.299 1728.91 805.347C1728.88 803.396 1726.44 801.773 1723.66 801.808C1720.87 801.843 1718.79 803.523 1718.82 805.475Z" fill="#F1E9FF"/>
<path d="M1781.79 848.75C1780.64 850.151 1778.09 849.675 1776.09 848.044C1774.09 846.413 1773.4 844.245 1774.55 842.844C1775.69 841.443 1778.4 841.672 1780.39 843.303C1782.39 844.934 1782.93 847.349 1781.79 848.75Z" fill="#F1E9FF"/>
<path d="M1721.62 837.825C1718.3 840.326 1715.79 838.373 1713.9 836.131C1713.17 836.029 1713.28 841.872 1710.4 841.241C1707.52 840.61 1711.25 835.739 1710.57 835.401C1708.42 835.564 1703.54 836.126 1703.15 832.654C1702.75 829.182 1714.23 823.784 1719.11 822.453C1720.78 823.644 1724.94 835.324 1721.62 837.825Z" fill="#F8E2E6"/>
<path d="M1721.62 837.825C1718.3 840.326 1715.79 838.373 1713.9 836.131C1713.17 836.029 1713.28 841.872 1710.4 841.241C1707.52 840.61 1711.25 835.739 1710.57 835.401C1708.42 835.564 1703.54 836.126 1703.15 832.654C1702.75 829.182 1714.23 823.784 1719.11 822.453C1720.78 823.644 1724.94 835.324 1721.62 837.825Z" fill="#F8E2E6"/>
<path d="M1788.91 883.586C1779.53 894.799 1744.64 889.427 1714.16 882.918C1686.66 877.047 1651.32 859.633 1649.79 848.66C1660.62 844.78 1698.16 843.787 1726.02 850.645C1752.68 857.211 1784.26 873.644 1788.91 883.586Z" fill="#EDC3C3"/>
<path d="M1750.01 876.909C1748.45 883.051 1731.8 883.796 1715.18 879.578C1698.56 875.36 1684.43 866.717 1685.99 860.574C1687.55 854.432 1706.69 852.49 1723.31 856.708C1739.93 860.926 1751.57 870.766 1750.01 876.909Z" fill="#A73552"/>
<mask id="mask2_1_8" style="mask-type:alpha" maskUnits="userSpaceOnUse" x="1690" y="863" width="56" height="164">
<path d="M1702.61 1019.32C1681.79 1002.79 1690.94 890.027 1706.06 866.64C1718.02 857.929 1730.42 867.046 1731.76 873.432C1716.33 915.906 1717.55 951.566 1725.56 973.337C1732.59 992.466 1747.46 1012.43 1745.31 1021.31C1743.56 1028.52 1713.74 1028.16 1702.61 1019.32Z" fill="url(#paint4_linear_1_8)"/>
</mask>
<g mask="url(#mask2_1_8)">
<path d="M1702.61 1019.32C1681.79 1002.79 1690.94 890.027 1706.06 866.64C1718.02 857.929 1730.42 867.046 1731.76 873.432C1716.33 915.906 1717.55 951.566 1725.56 973.337C1732.59 992.466 1747.46 1012.43 1745.31 1021.31C1743.56 1028.52 1713.74 1028.16 1702.61 1019.32Z" fill="url(#paint5_linear_1_8)"/>
<path opacity="0.24" d="M1706.79 1041.92C1741.15 1020.53 1686.46 931.669 1728.45 862.09C1739.98 852.252 1747.15 861.062 1748.81 867.8C1735.42 913.755 1738.34 951.673 1747.38 974.482C1755.31 994.523 1771.12 1015.09 1769.4 1024.64C1768.52 1029.49 1731.16 1037.04 1706.79 1041.92C1702.18 1044.79 1695.95 1046.45 1687.67 1046.67C1682.21 1046.82 1692.16 1044.85 1706.79 1041.92Z" fill="#F67B6A"/>
</g>
<path d="M1743.61 1028.14C1744.71 1026.47 1753.95 1000.24 1749.49 983.905C1742.73 959.132 1737.5 1011.18 1738.27 1017.29C1736.09 1002.14 1731.14 975.514 1728.69 990.267C1726.24 1005.02 1726.27 1015.4 1726.6 1018.74C1722.05 1003.42 1711.67 976.417 1706.5 991.057C1703.07 1000.74 1702.11 1008.41 1702.1 1013.41C1699.96 992.291 1695.74 960.479 1692.41 968.546C1688.76 977.352 1692.57 996.272 1694.93 1004.63C1691.94 997.291 1685.81 984.436 1685.14 991.743C1684.47 999.05 1695.87 1021.26 1701.65 1031.45C1713.99 1033.11 1737.35 1037.73 1743.61 1028.14Z" fill="url(#paint6_linear_1_8)"/>
<mask id="mask3_1_8" style="mask-type:alpha" maskUnits="userSpaceOnUse" x="1705" y="795" width="55" height="36">
<path d="M1749.79 796.37C1743.73 793.845 1756.82 798.896 1756.82 798.896C1756.2 792.8 1770.84 815.156 1741.54 820.137C1737.93 820.751 1729.4 830.151 1725.75 830.352C1722.27 830.543 1719.59 830.804 1717.2 828.14C1715.5 826.246 1716.56 823.577 1714.8 821.752C1712.25 819.099 1707.83 823.678 1705.73 820.56C1703.87 817.797 1711.39 810.947 1712.02 807.408C1714.98 790.619 1741.68 795.185 1752.4 797.73C1751.63 797.237 1750.77 796.776 1749.79 796.37Z" fill="#632E64"/>
</mask>
<g mask="url(#mask3_1_8)">
<path d="M1749.79 796.37C1743.73 793.845 1756.82 798.896 1756.82 798.896C1756.2 792.8 1770.84 815.157 1741.54 820.137C1737.93 820.751 1735.34 826.141 1731.7 826.341C1728.22 826.532 1725.53 826.793 1723.15 824.13C1721.45 822.235 1722.5 819.566 1720.75 817.741C1718.19 815.088 1713.78 819.667 1711.68 816.549C1709.82 813.786 1711.39 810.947 1712.02 807.408C1714.98 790.619 1741.68 795.185 1752.4 797.731C1751.63 797.237 1750.77 796.776 1749.79 796.37Z" fill="#9849BD"/>
<path d="M1708.85 814.139C1709.67 813.021 1710.79 813.134 1712.15 813.06C1715.01 812.905 1717.46 814.065 1718.5 816.733C1718.91 817.778 1719.39 818.587 1718.87 819.583C1718.45 820.369 1717.02 820.855 1717.02 820.855C1717.02 820.855 1715.09 821.681 1714.36 820.928C1713.81 820.35 1713.98 818.859 1713.98 818.859C1713.98 818.859 1712.35 819.958 1711.58 819.393C1710.95 818.937 1710.97 817.46 1710.97 817.46C1710.97 817.46 1709.25 818.034 1708.54 817.397C1707.62 816.572 1708.09 815.162 1708.85 814.139Z" fill="#DC76DE"/>
<path d="M1721.23 821.358C1722.06 820.24 1723.18 820.353 1724.53 820.279C1727.39 820.124 1729.84 821.284 1730.89 823.952C1731.3 824.997 1731.78 825.807 1731.25 826.802C1730.83 827.588 1729.4 828.074 1729.4 828.074C1729.4 828.074 1727.47 828.9 1726.75 828.147C1726.19 827.569 1726.36 826.078 1726.36 826.078C1726.36 826.078 1724.73 827.177 1723.96 826.612C1723.34 826.157 1723.35 824.679 1723.35 824.679C1723.35 824.679 1721.63 825.253 1720.92 824.616C1720 823.791 1720.48 822.381 1721.23 821.358Z" fill="#DC76DE"/>
<path d="M1709.52 817.219C1709.13 817.703 1708.48 817.857 1708.38 817.386C1708.39 817.208 1708.66 816.727 1708.78 816.564C1708.88 816.41 1709.14 816.146 1709.36 816.092C1710 815.932 1709.9 816.735 1709.52 817.219Z" fill="white"/>
<path d="M1712.35 819.487C1711.97 819.971 1711.32 820.126 1711.22 819.655C1711.22 819.477 1711.5 818.995 1711.61 818.833C1711.72 818.678 1711.98 818.415 1712.2 818.361C1712.84 818.2 1712.74 819.003 1712.35 819.487Z" fill="white"/>
<path d="M1715.44 820.836C1715.06 821.32 1714.41 821.475 1714.31 821.004C1714.31 820.826 1714.59 820.344 1714.7 820.182C1714.81 820.027 1715.07 819.764 1715.29 819.71C1715.93 819.55 1715.83 820.352 1715.44 820.836Z" fill="white"/>
<path d="M1721.83 824.581C1721.45 825.065 1720.79 825.22 1720.7 824.749C1720.7 824.571 1720.98 824.089 1721.09 823.927C1721.2 823.772 1721.46 823.509 1721.67 823.455C1722.32 823.294 1722.22 824.097 1721.83 824.581Z" fill="white"/>
<path d="M1724.67 826.85C1724.28 827.334 1723.63 827.488 1723.54 827.017C1723.54 826.839 1723.82 826.358 1723.93 826.195C1724.04 826.041 1724.3 825.778 1724.51 825.724C1725.16 825.563 1725.06 826.366 1724.67 826.85Z" fill="white"/>
<path d="M1727.76 828.199C1727.37 828.683 1726.72 828.837 1726.63 828.367C1726.63 828.189 1726.91 827.707 1727.02 827.545C1727.13 827.39 1727.39 827.127 1727.6 827.073C1728.25 826.912 1728.15 827.715 1727.76 828.199Z" fill="white"/>
<path d="M1761.45 799.673C1761.53 807.228 1749.22 811.754 1737.09 811.892C1724.96 812.029 1712.98 805.794 1711.59 798.364C1711.5 790.809 1724.36 786.995 1736.5 786.857C1748.63 786.719 1761.36 792.118 1761.45 799.673Z" fill="#DC76DE"/>
</g>
<path d="M1723.45 762.602C1720.51 763.021 1720.26 777.111 1720.26 777.111L1733.55 772.465C1733.55 772.465 1726.38 762.183 1723.45 762.602Z" fill="#632E64"/>
<path d="M1723.56 765.966C1721.51 766.266 1721.32 776.233 1721.32 776.233L1730.59 772.93C1730.59 772.93 1725.61 765.665 1723.56 765.966Z" fill="#DC76DE"/>
<path d="M1752.53 766.103C1755.28 767.207 1752.19 780.954 1752.19 780.954L1740.38 773.287C1740.38 773.287 1749.78 765 1752.53 766.103Z" fill="#632E64"/>
<path d="M1751.62 769.343C1753.54 770.12 1751.36 779.849 1751.36 779.849L1743.13 774.44C1743.13 774.44 1749.7 768.566 1751.62 769.343Z" fill="#DC76DE"/>
<path d="M1738.92 771.22C1716.81 768.558 1717.49 784.504 1717.49 784.504C1717.49 784.504 1713.02 780.994 1711.97 781.762C1710.67 782.708 1711.8 785.636 1710.2 785.443C1708.31 785.216 1709.1 785.287 1709.11 786.706C1709.11 788.103 1707.92 789.584 1709.31 789.751C1711.54 790.021 1710.25 791.502 1710.32 792.329C1710.47 794.204 1711.63 797.155 1712.95 798.689C1716.77 803.114 1724.92 807.875 1733.4 808.894C1741.27 809.841 1748.95 808.689 1753.72 805.701C1755.47 804.602 1757.95 802.974 1759.36 800.688C1760.08 799.517 1762.01 796.608 1762.99 795.648C1764.32 794.346 1764.36 793.719 1763.42 792.11C1762.48 790.502 1761.64 793.268 1761.56 791.886C1761.46 790.306 1761.19 788.632 1759.81 787.522C1758.8 786.703 1755.72 789.106 1755.72 789.106C1755.72 789.106 1759.03 773.64 1738.92 771.22Z" fill="url(#paint7_linear_1_8)"/>
<path d="M1758.79 791.725C1764.03 801.174 1749.91 809.183 1734.38 807.313C1718.85 805.444 1707.04 794.313 1714.37 786.378C1720.74 779.491 1729.5 792.054 1737.18 792.978C1744.86 793.903 1754.24 783.525 1758.79 791.725Z" fill="#F4C4DC"/>
<mask id="mask4_1_8" style="mask-type:alpha" maskUnits="userSpaceOnUse" x="1715" y="787" width="42" height="19">
<path d="M1755.18 793.754C1759.81 801.255 1744.83 807.096 1734.19 805.815C1723.55 804.534 1710.38 795.304 1716.65 789.116C1722.1 783.745 1729.82 793.736 1736.48 794.537C1743.14 795.339 1751.17 787.245 1755.18 793.754Z" fill="#D9D9D9"/>
</mask>
<g mask="url(#mask4_1_8)">
<path fill-rule="evenodd" clip-rule="evenodd" d="M1731.23 792.53C1733.01 793.52 1734.78 794.322 1736.48 794.526C1737.64 794.667 1738.85 794.531 1740.07 794.254C1740.49 795.816 1740.96 797.816 1741.29 799.775C1741.51 801.05 1741.66 802.296 1741.7 803.385C1741.73 804.313 1741.68 805.086 1741.54 805.657C1739.25 805.972 1736.92 806.048 1734.75 805.839C1735 804.656 1735.25 802.926 1735.46 801.142C1735.74 798.765 1735.95 796.215 1735.99 794.574L1734.84 794.549C1734.8 796.139 1734.6 798.648 1734.32 801.008C1734.1 802.876 1733.84 804.603 1733.6 805.699C1731.51 805.393 1729.33 804.791 1727.24 803.977C1727.28 803.706 1727.35 803.391 1727.43 803.039C1727.67 802.077 1728.04 800.882 1728.48 799.608C1729.35 797.111 1730.46 794.35 1731.23 792.53ZM1716.65 789.111C1720.49 785.337 1725.46 789.169 1730.38 792.045L1730.22 791.975C1729.43 793.808 1728.29 796.653 1727.4 799.232C1726.95 800.52 1726.56 801.753 1726.32 802.765C1726.25 803.034 1726.19 803.291 1726.15 803.531C1724.59 802.858 1723.09 802.071 1721.72 801.204C1721.77 800.71 1721.93 800.071 1722.2 799.315C1722.55 798.345 1723.06 797.248 1723.64 796.132C1724.8 793.901 1726.23 791.638 1727.18 790.239L1726.24 789.59C1725.26 791.017 1723.8 793.321 1722.62 795.602C1722.02 796.742 1721.49 797.889 1721.12 798.925C1720.92 799.469 1720.76 800.002 1720.67 800.499C1715.77 797.05 1713.11 792.596 1716.65 789.111ZM1745.25 792.557C1745.94 793.986 1746.88 796.104 1747.63 798.152C1748.03 799.248 1748.36 800.313 1748.58 801.235C1748.8 802.176 1748.87 802.896 1748.79 803.337L1749.36 803.437L1749.53 803.466C1747.5 804.359 1745.17 805.043 1742.75 805.466C1742.85 804.831 1742.88 804.106 1742.85 803.344C1742.81 802.187 1742.65 800.887 1742.43 799.583C1742.09 797.589 1741.61 795.557 1741.18 793.966C1742.54 793.572 1743.91 793.046 1745.25 792.557ZM1746.33 792.168C1749.87 790.943 1753.08 790.345 1755.18 793.75C1757.58 797.619 1754.73 801.042 1749.95 803.272C1750.01 802.624 1749.89 801.818 1749.7 800.974C1749.47 799.99 1749.11 798.877 1748.71 797.757C1747.96 795.718 1747.03 793.62 1746.33 792.168Z" fill="white"/>
</g>
<path d="M1735.74 795.344C1733.93 795.084 1732.49 792.5 1733.56 791.303C1734.03 790.976 1735.68 790.905 1736.26 790.946C1736.82 790.986 1737.88 791.272 1738.33 791.833C1739.68 793.505 1737.55 795.605 1735.74 795.344Z" fill="#D560D7"/>
<circle cx="1742.14" cy="788.416" r="3.93773" transform="rotate(6.86441 1742.14 788.416)" fill="#FFDB65"/>
<ellipse cx="1731.24" cy="786.349" rx="4.12524" ry="3.93773" transform="rotate(6.86441 1731.24 786.349)" fill="#FFDB65"/>
<circle cx="1730.06" cy="786.773" r="1.87511" transform="rotate(6.86441 1730.06 786.773)" fill="black"/>
<circle cx="1741.14" cy="788.863" r="1.87511" transform="rotate(6.86441 1741.14 788.863)" fill="black"/>
<path d="M1783.42 825.342C1783.42 825.342 1789.12 816.589 1790.88 819.304C1791.98 820.994 1792.23 822.188 1792.61 824.167C1793.12 826.806 1793.38 828.496 1792.54 831.05C1790.77 836.456 1786.86 837.362 1780.22 838.82C1773.57 840.278 1768.15 846.847 1768.15 846.847C1768.15 846.847 1759.34 857.243 1752.24 856.108C1745.56 855.041 1741.42 850.373 1740.13 843.738C1738.34 834.487 1747 829.339 1755.38 825.037C1765.12 820.037 1783.42 825.342 1783.42 825.342Z" fill="#9849BD"/>
<mask id="mask5_1_8" style="mask-type:alpha" maskUnits="userSpaceOnUse" x="1739" y="818" width="55" height="39">
<path d="M1783.42 825.342C1783.42 825.342 1789.12 816.59 1790.88 819.305C1791.98 820.995 1792.23 822.188 1792.61 824.168C1793.12 826.807 1793.38 828.496 1792.54 831.051C1790.77 836.457 1786.86 837.363 1780.22 838.82C1773.57 840.278 1768.15 846.848 1768.15 846.848C1768.15 846.848 1759.34 857.243 1752.24 856.108C1745.56 855.041 1741.42 850.374 1740.13 843.738C1738.34 834.488 1747 829.339 1755.38 825.037C1765.12 820.037 1783.42 825.342 1783.42 825.342Z" fill="#F0ABDA"/>
</mask>
<g mask="url(#mask5_1_8)">
<path fill-rule="evenodd" clip-rule="evenodd" d="M1762.82 857.162C1761.76 857.413 1761.05 855.69 1761.59 854.735C1761.93 854.13 1762.15 853.486 1762.24 852.808C1762.94 847.488 1755.26 842.089 1745.09 840.749C1739.92 840.068 1735.1 840.567 1731.52 841.921C1730.7 842.231 1729.87 841.534 1730.33 840.789C1733.26 836.038 1742.42 833.421 1752.76 834.783C1764.83 836.373 1773.93 842.778 1773.1 849.09C1772.6 852.903 1768.58 855.809 1762.82 857.162Z" fill="#DC76DE"/>
<path fill-rule="evenodd" clip-rule="evenodd" d="M1774.95 842.404C1773.9 842.689 1773.13 840.898 1773.5 839.87C1773.62 839.566 1773.69 839.253 1773.74 838.93C1774.33 834.462 1767.88 829.929 1759.34 828.804C1755.16 828.253 1751.25 828.621 1748.28 829.665C1747.46 829.955 1746.64 829.255 1747.14 828.537C1749.79 824.738 1757.31 822.678 1765.78 823.794C1775.91 825.129 1783.56 830.508 1782.86 835.808C1782.46 838.847 1779.4 841.201 1774.95 842.404Z" fill="#DC76DE"/>
<path fill-rule="evenodd" clip-rule="evenodd" d="M1789.54 837.492C1788.78 837.407 1788.76 835.936 1789.16 835.281C1790.54 833.048 1788.2 829.102 1783.93 826.467C1782.19 825.39 1780.39 824.698 1778.78 824.41C1777.92 824.256 1777.54 823.306 1778.37 823.029C1780.83 822.21 1784.79 823.021 1788.55 825.342C1793.61 828.468 1796.39 833.15 1794.75 835.798C1793.88 837.209 1791.94 837.758 1789.54 837.492Z" fill="#DC76DE"/>
</g>
<mask id="mask6_1_8" style="mask-type:alpha" maskUnits="userSpaceOnUse" x="1719" y="943" width="105" height="70">
<path fill-rule="evenodd" clip-rule="evenodd" d="M1823.4 993.591C1825.21 988.129 1802.86 945.338 1773.99 943.535C1738.31 941.308 1720.57 984.108 1719.21 994.53C1719.15 994.686 1719.08 994.844 1719.03 995.004C1719.06 995.179 1719.09 995.352 1719.13 995.524C1719.13 995.546 1719.13 995.568 1719.13 995.589C1719.13 995.668 1719.15 995.742 1719.19 995.816C1722.43 1009.26 1749.52 1010.88 1771.84 1012.03C1791.99 1013.08 1821.86 1007.46 1823.4 993.591Z" fill="#FD9065"/>
</mask>
<g mask="url(#mask6_1_8)">
<path fill-rule="evenodd" clip-rule="evenodd" d="M1823.76 990.302C1822.26 979.875 1801.63 941.435 1774.88 940.073C1738.94 938.242 1720.49 984.181 1719.11 994.966C1719.04 995.126 1718.97 995.287 1718.91 995.45C1718.95 995.636 1718.99 995.818 1719.04 995.999C1719.04 996.052 1719.06 996.103 1719.08 996.152C1722.65 1009.01 1751.44 1010.96 1775.15 1012.39C1796.92 1013.72 1829.25 1008.64 1829.51 994.951C1829.3 993.263 1827.18 991.704 1823.76 990.302Z" fill="url(#paint8_radial_1_8)"/>
<path d="M1706.04 982.507C1774.29 985.559 1814.65 969.473 1831.22 942.401L1847.1 991.367L1807.12 1017.22L1704.82 1039.14C1679.42 1030.1 1633.01 979.242 1706.04 982.507Z" fill="#C63359"/>
<path d="M1739.61 968.664L1742.48 976.439L1734.95 984.71L1732.73 976.082L1739.61 968.664Z" fill="#F8E2E6"/>
</g>
<path d="M1754.29 959.988C1755.21 963.925 1760.08 965.427 1764.88 964.055C1769.67 962.683 1772.58 958.955 1771.66 955.018C1770.74 951.081 1765.8 948.938 1761 950.31C1756.21 951.683 1753.37 956.051 1754.29 959.988Z" fill="#F8E2E6"/>
<path d="M1804.81 976.486C1803.01 979.141 1799.09 978.989 1796.05 976.748C1793 974.506 1792 971.022 1793.79 968.368C1795.58 965.714 1799.74 965.412 1802.78 967.654C1805.83 969.896 1806.6 973.832 1804.81 976.486Z" fill="#F8E2E6"/>
<path d="M1775.04 971.3C1775.69 973.651 1778.39 974.638 1780.95 973.92C1783.5 973.203 1784.93 971.052 1784.29 968.702C1783.64 966.352 1780.87 964.983 1778.32 965.701C1775.77 966.418 1774.39 968.95 1775.04 971.3Z" fill="#F8E2E6"/>
<path d="M1811.84 982.964C1810.92 984.05 1811.44 985.879 1812.75 987.1C1814.06 988.321 1815.65 988.472 1816.57 987.387C1817.49 986.301 1817.13 984.321 1815.82 983.099C1814.52 981.878 1812.76 981.879 1811.84 982.964Z" fill="#F8E2E6"/>
<path d="M1786.27 955.173C1785.89 956.495 1784.06 956.947 1782.29 956.427C1780.51 955.908 1779.47 954.613 1779.85 953.292C1780.23 951.97 1782.09 951.302 1783.86 951.821C1785.64 952.341 1786.65 953.852 1786.27 955.173Z" fill="#F8E2E6"/>
<path d="M1761.2 975.495C1761.07 977.24 1759.25 978.304 1757.31 978.145C1755.36 977.986 1754.02 976.665 1754.15 974.92C1754.28 973.174 1756.09 971.834 1758.03 971.992C1759.98 972.151 1761.33 973.749 1761.2 975.495Z" fill="#F8E2E6"/>
<path d="M1723 995.931C1726.91 1005.22 1750.21 1007.77 1770.9 1008.77C1789.57 1009.68 1816.89 1004.21 1819.98 994.978C1813.81 987.523 1788.42 985.035 1769.33 984.739C1751.07 984.457 1727.82 990.004 1723 995.931Z" fill="#EDC3C3"/>
<path d="M1749.24 997.348C1749.1 1001.37 1759.62 1004.52 1771.03 1004.61C1782.44 1004.7 1793.06 1001.67 1793.2 997.643C1793.33 993.619 1781.45 989.339 1770.04 989.248C1758.63 989.158 1749.37 993.324 1749.24 997.348Z" fill="#A73552"/>
<mask id="mask7_1_8" style="mask-type:alpha" maskUnits="userSpaceOnUse" x="1753" y="995" width="29" height="48">
<path d="M1777.9 1040.2C1783.74 1033.02 1780.99 1000.91 1778.81 997.156C1777.02 994.719 1764.81 994.394 1762.53 996.928C1761.83 1007.48 1761.75 1013.41 1759.92 1021.51C1758.6 1027.31 1753.99 1034.35 1753.9 1036.69C1753.68 1042.79 1774.08 1044.91 1777.9 1040.2Z" fill="#FEE1A5"/>
<path d="M1777.9 1040.2C1783.74 1033.02 1780.99 1000.91 1778.81 997.156C1777.02 994.719 1764.81 994.394 1762.53 996.928C1761.83 1007.48 1761.75 1013.41 1759.92 1021.51C1758.6 1027.31 1753.99 1034.35 1753.9 1036.69C1753.68 1042.79 1774.08 1044.91 1777.9 1040.2Z" fill="url(#paint9_linear_1_8)"/>
</mask>
<g mask="url(#mask7_1_8)">
<path d="M1777.9 1040.2C1783.74 1033.02 1780.99 1000.91 1778.81 997.156C1777.02 994.719 1764.81 994.394 1762.53 996.928C1761.83 1007.48 1761.75 1013.41 1759.92 1021.51C1758.6 1027.31 1753.99 1034.35 1753.9 1036.69C1753.68 1042.79 1774.08 1044.91 1777.9 1040.2Z" fill="url(#paint10_linear_1_8)"/>
<path opacity="0.62" d="M1745.45 1046.21C1740.62 1036.43 1747.62 996.78 1750.29 992.411C1752.39 989.623 1764.54 990.927 1766.46 994.404C1765.75 1007.66 1765.04 1015.07 1765.78 1025.42C1766.31 1032.83 1769.94 1042.26 1769.72 1045.19C1769.12 1052.82 1748.62 1052.61 1745.45 1046.21Z" fill="#FDBEAB"/>
<path d="M1756.17 1043.33C1755.56 1042.39 1750.43 1027.84 1752.91 1018.78C1756.66 1005.03 1759.56 1033.91 1759.14 1037.3C1760.34 1028.89 1763.09 1014.12 1764.45 1022.31C1765.81 1030.49 1765.79 1036.25 1765.61 1038.11C1768.13 1029.6 1773.89 1014.62 1776.76 1022.74C1778.66 1028.12 1779.2 1032.38 1779.21 1035.15C1780.39 1023.43 1782.73 1005.78 1784.58 1010.25C1786.61 1015.14 1784.49 1025.64 1783.19 1030.28C1784.84 1026.2 1788.25 1019.07 1788.62 1023.13C1788.99 1027.18 1782.66 1039.5 1779.45 1045.16C1772.6 1046.08 1759.64 1048.64 1756.17 1043.33Z" fill="url(#paint11_linear_1_8)"/>
</g>
<path d="M1846.47 844.205C1847.98 845.242 1851.98 846.867 1852.81 847.05L1842.59 889.893L1835.02 894.804L1835.73 879.717L1836.2 870.578C1836.2 870.578 1836.32 866.062 1836.73 863.204C1837.18 860.152 1837.03 858.314 1838.46 855.497C1839.9 852.68 1840.4 850.899 1842.34 848.407C1843.75 846.589 1846.47 844.205 1846.47 844.205Z" fill="#C98032"/>
<path d="M1856.71 866.86C1855.77 865.921 1854.61 865.215 1852.84 865.121L1850.74 871.737L1856.71 866.86Z" fill="#C98032"/>
<path d="M1853.89 867.788C1852.44 868.69 1851.28 871.29 1851.28 871.29C1851.28 871.29 1852.46 865.586 1852.77 864.513C1853.07 863.439 1853.63 854.862 1853.63 854.862C1853.63 854.862 1853.71 848.144 1853.32 847.453C1852.94 846.762 1852.41 846.816 1851.74 846.741C1850.26 846.577 1848.65 848.991 1848.65 848.991L1845.42 856.196L1842.16 866.158L1839.08 892.301L1850.69 889.2L1855.28 878.97L1858.25 872.342C1858.25 872.342 1859.7 868.624 1858.19 867.467C1857.75 867.129 1857.44 866.997 1856.89 866.885C1855.7 866.637 1854.93 867.141 1853.89 867.788Z" fill="#F9ED9B"/>
<path d="M1884.57 882.318C1884.25 882.134 1884.05 882.054 1883.71 881.93C1880.52 880.798 1876.03 885.928 1876.03 885.928L1886.89 887.17C1886.89 887.17 1886.39 883.365 1884.57 882.318Z" fill="#C98032"/>
<path d="M1842.54 896.518C1842.22 895.683 1843.12 895.221 1843.12 895.221L1877.17 871.035C1877.17 871.035 1883.97 871.233 1888.3 871.7C1889.32 871.811 1890.93 872.014 1890.93 872.014L1889.5 875.184C1889.5 875.184 1887.11 878.215 1885.46 879.948C1882.39 883.166 1875.82 886.007 1875.82 886.007C1875.82 886.007 1880.38 884.988 1882.94 885.568C1884.56 885.935 1885.81 885.993 1886.83 887.314C1887.33 887.972 1887.71 888.428 1887.69 889.257C1887.66 890.322 1886.85 890.706 1886.16 891.513C1883.73 894.329 1881.09 894.428 1877.56 895.619C1871.02 897.83 1866.65 895.687 1859.96 897.415C1854.39 898.856 1846.27 902.866 1846.27 902.866C1846.27 902.866 1842.85 897.353 1842.54 896.518Z" fill="#F9ED9B"/>
<path d="M1864.03 894.912C1862.5 895.132 1861.3 895.339 1859.83 895.795L1858.74 895.134L1860.18 894.225C1860.18 894.225 1868.43 890.134 1869.07 890.248C1869.71 890.363 1869.48 891.645 1870.09 891.054C1870.7 890.462 1871.42 890.786 1872.26 890.468C1873.09 890.15 1872.91 889.715 1873.4 889.077C1874.05 888.219 1874.67 887.901 1875.67 887.498C1877.52 886.752 1878.88 887.07 1880.77 887.709C1881.41 887.926 1881.91 887.9 1882.35 888.42C1883.32 889.578 1881.15 890.493 1880.08 891.555C1877.5 894.098 1875.03 894.366 1871.45 894.955C1868.59 895.427 1866.9 894.5 1864.03 894.912Z" fill="url(#paint12_linear_1_8)"/>
<path d="M1844.62 895.724C1844.21 895.883 1844.54 897.07 1844.54 897.07C1844.54 897.07 1845.2 897.635 1845.69 897.588C1845.95 897.562 1846.06 897.389 1846.32 897.349C1846.99 897.246 1847.75 897.399 1847.9 898.061C1848.07 898.814 1846.93 898.331 1847.1 899.084C1847.25 899.746 1846.79 899.662 1847.44 899.868C1850.61 900.875 1855.61 897.476 1855.61 897.476C1855.61 897.476 1856.62 896.917 1856.6 896.424C1856.58 895.843 1855.77 895.187 1855.77 895.187C1855.77 895.187 1869.26 889.816 1870.63 888.698C1872 887.58 1871.98 887.228 1872.46 886.925C1872.94 886.622 1873.61 885.533 1873.61 885.533C1873.61 885.533 1879.33 881.642 1881.79 880.031C1881.79 880.031 1884.64 877.155 1883.6 875.996C1882.56 874.838 1877.94 876.3 1874.69 877.712C1872.45 878.687 1871.25 879.461 1869.39 881.044C1868.33 881.941 1866.88 883.553 1866.88 883.553C1866.88 883.553 1864.17 884.092 1863.14 885.335C1862.46 886.14 1862.46 886.493 1861.88 887.367C1859.86 890.425 1853.19 890.912 1853.19 890.912C1853.19 890.912 1845.04 895.564 1844.62 895.724Z" fill="url(#paint13_linear_1_8)"/>
<path d="M1853.76 884.243C1849.28 887.712 1841.27 891.622 1841.27 891.622L1843.12 895.221L1850.53 891.447C1850.53 891.447 1855.17 888.861 1858.05 887.033C1862.27 884.347 1864.29 882.333 1868.48 879.598C1871.67 877.512 1873.33 876.051 1876.82 874.513C1880.1 873.067 1882.06 872.357 1885.62 871.883C1887.67 871.609 1891 872.223 1890.91 871.661C1890.82 871.1 1889.5 870.09 1888.95 868.704C1888.61 867.843 1888.64 866.313 1888.14 866.263C1887.64 866.213 1881.97 865.888 1878.2 866.82C1874.38 867.763 1872.39 868.958 1869.04 871.021C1866.01 872.887 1864.56 874.319 1861.85 876.623C1858.54 879.433 1857.19 881.584 1853.76 884.243Z" fill="#C98032"/>
<path d="M1839.09 891.33C1839.09 891.33 1840.41 885.106 1840.23 879.726C1840.11 876.395 1840.1 871.986 1836.91 871.04C1835.82 870.717 1834.08 870.84 1833.08 871.376C1831.95 871.974 1830.95 874.425 1831.73 875.433C1832.25 876.117 1834.02 876.013 1834.02 876.013" stroke="#CB415B" stroke-width="0.63173"/>
<circle cx="1833.91" cy="875.169" r="1.26346" transform="rotate(14.1699 1833.91 875.169)" fill="#CB415B"/>
<path d="M1839.41 891.037C1839.41 891.037 1843.02 885.068 1847.34 882.003C1850.07 880.066 1853.19 877.421 1856.02 879.18C1856.99 879.78 1858.05 881.16 1858.32 882.265C1858.61 883.501 1857.45 885.88 1856.18 885.971C1855.32 886.032 1854.22 884.64 1854.22 884.64" stroke="#CB415B" stroke-width="0.63173"/>
<circle cx="1.26346" cy="1.26346" r="1.26346" transform="matrix(-0.827376 -0.561648 -0.561648 0.827376 1856.68 883.828)" fill="#CB415B"/>
<path d="M1845.77 895.877C1848.65 897.17 1850.02 900.284 1848.89 902.816C1847.75 905.347 1844.51 906.391 1841.63 905.098C1838.75 903.806 1837.37 900.691 1838.51 898.16C1839.65 895.628 1842.89 894.584 1845.77 895.877Z" fill="#CB415B" stroke="#CB415B" stroke-width="0.315865"/>
<path d="M1853.58 899.468C1856.64 900.241 1858.53 903.069 1857.86 905.76C1857.18 908.45 1854.17 910.04 1851.11 909.268C1848.04 908.495 1846.15 905.666 1846.83 902.976C1847.51 900.286 1850.52 898.695 1853.58 899.468Z" fill="#CB415B" stroke="#CB415B" stroke-width="0.315865"/>
<path d="M1862.87 899.461C1864.45 899.576 1866.27 900.283 1867.67 901.317C1869.07 902.355 1870.01 903.688 1869.91 905.041C1869.81 906.395 1868.69 907.578 1867.15 908.402C1865.62 909.221 1863.71 909.657 1862.14 909.542C1858.99 909.312 1856.63 906.856 1856.84 904.088C1857.04 901.321 1859.72 899.232 1862.87 899.461Z" fill="#CB415B" stroke="#CB415B" stroke-width="0.315865"/>
<path d="M1839.53 889.384C1842.41 890.677 1843.78 893.792 1842.64 896.323C1841.51 898.854 1838.27 899.898 1835.39 898.606C1832.51 897.313 1831.13 894.199 1832.27 891.667C1833.41 889.136 1836.65 888.092 1839.53 889.384Z" fill="#CB415B" stroke="#CB415B" stroke-width="0.315865"/>
</g>
<defs>
<linearGradient id="paint0_linear_1_8" x1="1017" y1="-168" x2="1231.84" y2="1415.86" gradientUnits="userSpaceOnUse">
<stop offset="0.115085" stop-color="#C4E6FB"/>
<stop offset="0.564464" stop-color="#C1E8FD"/>
</linearGradient>
<linearGradient id="paint1_linear_1_8" x1="846.796" y1="796.464" x2="845.541" y2="1122.85" gradientUnits="userSpaceOnUse">
<stop stop-color="#A0E475"/>
<stop offset="1" stop-color="#4FAE89"/>
</linearGradient>
<linearGradient id="paint2_linear_1_8" x1="846.796" y1="796.464" x2="845.541" y2="1122.85" gradientUnits="userSpaceOnUse">
<stop stop-color="#A0E475"/>
<stop offset="1" stop-color="#4FAE89"/>
</linearGradient>
<radialGradient id="paint3_radial_1_8" cx="0" cy="0" r="1" gradientUnits="userSpaceOnUse" gradientTransform="translate(1712.49 792.118) rotate(79.2343) scale(62.1115 97.2692)">
<stop stop-color="#E8A982"/>
<stop offset="1" stop-color="#E64B73"/>
</radialGradient>
<linearGradient id="paint4_linear_1_8" x1="1720.09" y1="863.116" x2="1717.38" y2="1026.17" gradientUnits="userSpaceOnUse">
<stop stop-color="#FAF2E7"/>
<stop offset="1" stop-color="#FFDB90"/>
</linearGradient>
<linearGradient id="paint5_linear_1_8" x1="1720.09" y1="863.116" x2="1717.38" y2="1026.17" gradientUnits="userSpaceOnUse">
<stop stop-color="#FFEDD4"/>
<stop offset="1" stop-color="#FFCAB8"/>
</linearGradient>
<linearGradient id="paint6_linear_1_8" x1="1719.53" y1="964.019" x2="1716.96" y2="1056.21" gradientUnits="userSpaceOnUse">
<stop stop-color="#499A7B"/>
<stop offset="1" stop-color="#81D07C"/>
</linearGradient>
<linearGradient id="paint7_linear_1_8" x1="1738.73" y1="771.196" x2="1734.18" y2="808.988" gradientUnits="userSpaceOnUse">
<stop stop-color="#632E64"/>
<stop offset="1" stop-color="#9849BD"/>
</linearGradient>
<radialGradient id="paint8_radial_1_8" cx="0" cy="0" r="1" gradientTransform="matrix(11.7311 49.8697 70.8082 -15.749 1760.07 937.271)" gradientUnits="userSpaceOnUse">
<stop stop-color="#E8A982"/>
<stop offset="1" stop-color="#E64B73"/>
</radialGradient>
<linearGradient id="paint9_linear_1_8" x1="1768.12" y1="994.954" x2="1764.93" y2="1041.42" gradientUnits="userSpaceOnUse">
<stop stop-color="#FAF2E7"/>
<stop offset="1" stop-color="#F5E6FF"/>
</linearGradient>
<linearGradient id="paint10_linear_1_8" x1="1770.01" y1="995.084" x2="1766.75" y2="1042.72" gradientUnits="userSpaceOnUse">
<stop stop-color="#FFEDD4"/>
<stop offset="1" stop-color="#FFCAB8"/>
</linearGradient>
<linearGradient id="paint11_linear_1_8" x1="1769.53" y1="1007.74" x2="1770.96" y2="1058.9" gradientUnits="userSpaceOnUse">
<stop stop-color="#499A7B"/>
<stop offset="1" stop-color="#81D07C"/>
</linearGradient>
<linearGradient id="paint12_linear_1_8" x1="1874.08" y1="884.548" x2="1867.49" y2="899.235" gradientUnits="userSpaceOnUse">
<stop stop-color="#DCB206"/>
<stop offset="1" stop-color="#F09D00"/>
</linearGradient>
<linearGradient id="paint13_linear_1_8" x1="1871.35" y1="870.411" x2="1856.33" y2="903.882" gradientUnits="userSpaceOnUse">
<stop stop-color="#DCB206"/>
<stop offset="1" stop-color="#F09D00"/>
</linearGradient>
<clipPath id="clip0_1_8">
<rect width="1920" height="1080" fill="white"/>
</clipPath>
</defs>
</svg>
