<svg width="1920" height="1080" viewBox="0 0 1920 1080" fill="none" xmlns="http://www.w3.org/2000/svg">
<g clip-path="url(#clip0_1_186)">
<rect width="1920" height="1080" fill="url(#paint0_linear_1_186)"/>
<path d="M1711.39 78.5607L1707.29 84.1361V97.1457L1706.92 112.757L1708.04 124.651L1709.81 130.949L1715.48 137.126L1724.51 145.618L1734.37 156.683L1739.23 160.018L1745.92 159.258L1765.01 155.398L1784.62 149.993L1803.71 146.905L1818.67 142.015L1827.18 139.699L1833.37 133.78L1834.66 123.743L1833.89 106.758L1834.66 87.4559L1833.63 80.2499L1825.12 74.0734L1814.8 66.3526L1805.51 59.6614L1799.06 56.573L1792.36 56.3159L1783.07 59.4041L1767.08 62.235L1752.11 65.8379L1740.51 68.9261L1730.7 71.7572L1718.1 75.2153L1711.39 78.5607Z" fill="white"/>
<path fill-rule="evenodd" clip-rule="evenodd" d="M1824.23 80.6971C1827.91 79.8086 1831.19 80.8426 1833.27 83.159C1834.68 84.7407 1835.53 86.9156 1835.56 89.4852L1836 128.474C1836.07 134.818 1831.11 141.18 1824.93 142.674L1746.47 161.636C1740.29 163.129 1735.21 159.191 1735.14 152.848L1734.7 113.858C1734.63 107.514 1739.59 101.152 1745.77 99.6581L1788.87 89.2421L1801.82 86.1122L1824.23 80.6971ZM1764.12 132.968C1763.38 132.95 1762.64 133.026 1761.9 133.193C1760.03 133.616 1758.52 134.567 1757.36 136.047C1756.21 137.527 1755.63 139.274 1755.63 141.287C1755.63 143.337 1756.19 144.772 1757.31 145.59C1758.43 146.408 1759.88 146.615 1761.65 146.214C1763.54 145.787 1764.91 144.965 1765.76 143.748C1766.61 142.531 1767.1 141.353 1767.23 140.216L1764.73 140.309C1764.42 142.264 1763.49 143.417 1761.93 143.768C1759.8 144.25 1758.74 143.142 1758.74 140.446C1758.74 137.676 1759.77 136.056 1761.85 135.588C1762.61 135.416 1763.33 135.419 1764.01 135.597L1764.43 137.553L1766.82 136.764L1766.32 133.387C1765.6 133.125 1764.86 132.985 1764.12 132.968ZM1788.61 128.237C1787.76 127.709 1786.77 127.573 1785.64 127.828C1784.63 128.058 1783.76 128.506 1783.06 129.173C1782.36 129.84 1781.82 130.64 1781.45 131.573C1781.15 130.68 1780.64 130.091 1779.9 129.806C1779.15 129.521 1778.32 129.482 1777.4 129.691C1776.47 129.901 1775.68 130.291 1775.04 130.862C1774.39 131.433 1773.87 132.105 1773.48 132.876V130.825L1768.68 131.911V134.211L1770.51 133.796V141.664L1768.65 142.084V144.355L1775.81 142.737V140.465L1773.48 140.992V136.117C1773.5 135.263 1773.74 134.456 1774.2 133.696C1774.67 132.936 1775.38 132.447 1776.34 132.229C1777.08 132.062 1777.66 132.176 1778.08 132.571C1778.49 132.966 1778.7 133.755 1778.7 134.937V139.812L1778.03 139.964V142.235L1783.53 140.992V138.721L1781.67 139.141V134.294C1781.69 133.44 1781.93 132.629 1782.38 131.862C1782.83 131.095 1783.55 130.599 1784.53 130.378C1785.29 130.206 1785.88 130.319 1786.3 130.714C1786.71 131.109 1786.92 131.898 1786.92 133.08V137.955L1786.23 138.112V140.384L1791.72 139.141V136.87L1789.89 137.284V131.328C1789.89 129.795 1789.47 128.765 1788.61 128.237ZM1799.75 118.268V120.54L1802.44 119.932V126.22C1802.07 125.639 1801.55 125.226 1800.87 124.981C1800.2 124.737 1799.37 124.726 1798.39 124.948C1796.46 125.383 1795.05 126.38 1794.15 127.94C1793.26 129.5 1792.81 131.167 1792.81 132.94C1792.81 134.879 1793.28 136.296 1794.24 137.188C1795.19 138.081 1796.48 138.344 1798.11 137.975C1799.24 137.72 1800.15 137.25 1800.85 136.567C1801.54 135.884 1802.07 135.14 1802.44 134.337V136.72L1807.25 135.634V133.362L1805.41 133.776V116.989L1799.75 118.268ZM1799.25 127.136C1800.14 126.935 1800.89 127.07 1801.5 127.542C1802.11 128.013 1802.42 128.764 1802.44 129.794V130.735C1802.42 131.663 1802.11 132.612 1801.5 133.581C1800.89 134.55 1800.07 135.15 1799.06 135.38C1798.19 135.576 1797.44 135.402 1796.82 134.859C1796.2 134.316 1795.89 133.389 1795.89 132.078C1795.89 130.785 1796.2 129.695 1796.82 128.807C1797.44 127.918 1798.25 127.361 1799.25 127.136ZM1825.93 112.282C1825.34 112.277 1824.76 112.34 1824.18 112.47C1822.72 112.8 1821.56 113.533 1820.71 114.667C1819.86 115.801 1819.44 117.042 1819.44 118.39V120.44L1817.8 120.811V123L1819.44 122.63V130.607L1817.58 131.028V133.3L1824.74 131.681V129.409L1822.38 129.942V121.964L1825.52 121.255V119.066L1822.38 119.775V117.31C1822.38 115.87 1822.95 115.02 1824.1 114.761C1824.49 114.673 1824.87 114.652 1825.24 114.697L1825.82 116.588L1828.15 115.783L1827.63 112.717C1827.09 112.432 1826.53 112.287 1825.93 112.282ZM1808.97 127.544V130.037L1815.52 128.556V126.062L1808.97 127.544ZM1761.47 106.71C1761.47 104.529 1759.65 103.22 1757.45 103.812C1755.25 104.405 1753.43 106.689 1753.43 108.87V110.195L1750.76 110.916V109.59C1750.76 107.409 1748.94 106.1 1746.74 106.692C1744.54 107.284 1742.72 109.568 1742.72 111.749C1742.72 113.93 1744.54 115.239 1746.74 114.647L1748.08 114.287V116.938L1746.74 117.299C1744.54 117.891 1742.72 120.175 1742.72 122.355C1742.72 124.536 1744.54 125.846 1746.74 125.254C1748.94 124.662 1750.76 122.377 1750.76 120.196V118.87L1753.43 118.15V119.476C1753.43 121.657 1755.25 122.966 1757.45 122.374C1759.65 121.782 1761.47 119.497 1761.47 117.316C1761.47 115.136 1759.65 113.827 1757.45 114.419L1756.11 114.779V112.128L1757.45 111.767C1759.65 111.175 1761.47 108.891 1761.47 106.71Z" fill="#0D1D55"/>
<path d="M1746.74 109.771C1747.5 109.568 1748.08 109.988 1748.08 110.737V112.063L1746.74 112.423C1745.98 112.626 1745.4 112.206 1745.4 111.457C1745.4 110.708 1745.98 109.974 1746.74 109.771Z" fill="#0D1D55"/>
<path d="M1757.45 106.75C1758.21 106.546 1758.79 106.966 1758.79 107.716C1758.79 108.465 1758.21 109.198 1757.45 109.401L1756.11 109.761V108.435C1756.11 107.686 1756.69 106.953 1757.45 106.75Z" fill="#0D1D55"/>
<path d="M1750.78 113.728L1753.45 113.008V115.66L1750.78 116.38V113.728Z" fill="#0D1D55"/>
<path d="M1746.74 119.95L1748.08 119.59V120.916C1748.08 121.665 1747.5 122.399 1746.74 122.602C1745.98 122.805 1745.4 122.385 1745.4 121.636C1745.4 120.887 1745.98 120.154 1746.74 119.95Z" fill="#0D1D55"/>
<path d="M1756.11 117.439L1757.45 117.079C1758.21 116.876 1758.79 117.296 1758.79 118.045C1758.79 118.794 1758.21 119.528 1757.45 119.731C1756.69 119.934 1756.11 119.514 1756.11 118.765V117.439Z" fill="#0D1D55"/>
<path fill-rule="evenodd" clip-rule="evenodd" d="M1795.65 54.0164C1795.31 54.0329 1794.54 54.1238 1794.09 54.1983C1793.72 54.2597 1789.66 55.2205 1773.27 59.1226C1772.13 59.3942 1759.36 62.4352 1744.88 65.8804C1730.41 69.3255 1718.35 72.208 1718.08 72.2858C1716.64 72.7072 1715.08 73.4174 1713.92 74.1757C1711.04 76.0618 1708.79 78.6048 1707.38 81.5838C1706.44 83.5599 1705.95 85.3798 1705.8 87.4719C1705.77 87.8292 1705.81 91.9908 1705.97 106.132C1706.08 116.142 1706.18 124.731 1706.2 125.218C1706.22 125.705 1706.26 126.261 1706.28 126.454C1706.59 128.867 1707.49 130.974 1708.94 132.711C1709.33 133.177 1711.31 135.161 1712.1 135.87C1712.85 136.555 1714.59 138.27 1716.52 140.227C1718.25 141.982 1719.7 143.489 1723.15 147.094C1723.65 147.615 1724.36 148.356 1724.73 148.741C1725.09 149.126 1725.91 149.986 1726.55 150.653C1727.18 151.319 1727.86 152.032 1728.06 152.237C1728.26 152.443 1728.82 153.03 1729.31 153.542C1730.86 155.163 1732.36 156.721 1732.53 156.874C1732.62 156.956 1732.98 157.288 1733.32 157.613C1734.19 158.437 1734.82 159.004 1735.22 159.322C1736.37 160.232 1737.99 161.068 1739.29 161.42C1740.17 161.658 1740.9 161.747 1742.76 161.841L1743.15 161.861V160.558V159.255L1742.91 159.269C1742.56 159.289 1741.79 159.226 1741.31 159.137C1739.99 158.895 1738.6 158.249 1737.33 157.293C1736.23 156.473 1735.15 155.422 1734.13 154.179C1733.85 153.849 1726.32 145.926 1725.05 144.639C1724.61 144.185 1722.48 142.018 1720.33 139.822C1718.18 137.626 1716.06 135.466 1715.62 135.022C1712.59 131.956 1712.12 131.447 1711.42 130.485C1710.43 129.127 1710.07 128.41 1709.78 127.222C1709.58 126.434 1709.51 125.851 1709.49 124.721C1709.48 124.251 1709.38 115.806 1709.27 105.955C1709.06 87.42 1709.07 87.7769 1709.18 86.8566C1709.45 84.7301 1710.44 82.3809 1711.85 80.5174C1712.34 79.8629 1712.64 79.5191 1713.27 78.8985C1714.61 77.5518 1715.91 76.6572 1717.54 75.9412C1718.04 75.724 1719.03 75.3882 1719.52 75.2696C1719.9 75.177 1792.94 57.786 1793.79 57.5846C1794.78 57.351 1795.21 57.2934 1796.16 57.2682C1796.88 57.2492 1797.32 57.2754 1797.89 57.3703C1798.65 57.4958 1799.46 57.7535 1800.14 58.0836C1801.2 58.6041 1803.33 59.7971 1804.24 60.3827C1804.41 60.4893 1808 63.0836 1812.22 66.1478C1823.11 74.0418 1824.25 74.8709 1827.65 77.3576C1830.5 79.4341 1830.72 79.6046 1831.11 79.9856C1831.81 80.6709 1832.26 81.2738 1832.6 81.9779C1832.99 82.7848 1833.06 83.1132 1833.14 84.4017C1833.2 85.2972 1833.24 88.0241 1833.21 89.5679L1833.19 91.0361L1833.27 91.0367C1833.31 91.037 1833.81 91.0782 1834.39 91.1283C1834.96 91.1783 1835.44 91.2119 1835.45 91.2028C1835.46 91.1938 1835.47 89.8206 1835.47 88.1514C1835.48 85.6049 1835.48 85.0139 1835.43 84.4794C1835.24 81.9481 1834.91 80.5068 1834.28 79.3757C1833.84 78.5819 1833.26 77.859 1832.63 77.3011C1832.46 77.1559 1832.28 76.997 1832.23 76.9481C1831.78 76.5446 1829.48 74.8028 1826.91 72.9199C1826.66 72.7381 1826.08 72.3118 1825.61 71.9726C1824.25 70.9737 1819.23 67.3301 1817.61 66.1613C1816.14 65.1005 1813.48 63.1742 1813.17 62.9446C1813.02 62.8311 1812.64 62.5568 1812.33 62.3349C1812.02 62.113 1811.14 61.4768 1810.38 60.9211C1809.62 60.3654 1808.73 59.7169 1808.4 59.4801C1807.36 58.7274 1806.35 57.9565 1806.11 57.7391C1805.44 57.135 1804.29 56.4309 1802.73 55.6735C1800.75 54.7095 1799.66 54.3404 1798.14 54.1222C1797.38 54.013 1796.48 53.9749 1795.65 54.0164Z" fill="#0D1D55"/>
<path opacity="0.25" d="M152.971 422C283.846 422 389.942 482.793 389.942 557.784C389.942 558.72 389.924 559.654 389.892 560.585C397.883 559.705 406.135 559.244 414.574 559.244C486.345 559.244 544.526 592.583 544.526 633.707C544.526 637.828 543.94 641.871 542.816 645.81C554.618 641.536 568.603 639.061 583.596 639.061C609.306 639.061 632.052 646.334 645.909 657.485C654.987 652.695 667.108 649.768 680.422 649.768C690.727 649.768 700.318 651.523 708.336 654.536C712.45 640.774 733.371 630.3 758.562 630.3C780.616 630.3 799.396 638.328 806.493 649.562C829.199 630.861 866.981 618.62 909.753 618.62C917.911 618.62 925.888 619.065 933.613 619.916C933.559 618.839 933.531 617.758 933.531 616.673C933.531 555.927 1019.47 506.683 1125.49 506.683C1204.95 506.683 1273.13 534.348 1302.3 573.785C1317.08 570.676 1333.05 568.979 1349.72 568.979C1378.51 568.979 1405.24 574.048 1427.34 582.713C1447.54 553.569 1497.2 532.964 1555.26 532.964C1581.18 532.964 1605.42 537.07 1626.12 544.208C1661.09 502.98 1734.88 474.562 1820.26 474.562C1939.41 474.562 2036 529.907 2036 598.179C2036 631.212 2013.38 661.219 1976.54 683.395V1069.29H-7.55859V661.448H-0.0898438C-51.4168 636.541 -84 599.343 -84 557.784C-83.9999 482.793 22.0954 422 152.971 422Z" fill="#92D8FF"/>
<path opacity="0.25" d="M1799.03 603C1668.15 603 1562.06 659.284 1562.06 728.714C1562.06 729.58 1562.08 730.444 1562.11 731.307C1554.12 730.491 1545.87 730.065 1537.43 730.065C1465.66 730.065 1407.47 760.931 1407.47 799.006C1407.47 802.821 1408.06 806.563 1409.18 810.21C1397.38 806.253 1383.4 803.962 1368.4 803.962C1342.69 803.962 1319.95 810.696 1306.09 821.021C1297.01 816.585 1284.89 813.875 1271.58 813.875C1261.27 813.875 1251.68 815.499 1243.66 818.289C1239.55 805.548 1218.63 795.852 1193.44 795.852C1171.38 795.852 1152.6 803.284 1145.51 813.685C1122.8 796.371 1085.02 785.038 1042.25 785.038C1034.09 785.038 1026.11 785.45 1018.39 786.237C1018.44 785.24 1018.47 784.239 1018.47 783.235C1018.47 726.995 932.528 681.402 826.514 681.402C747.054 681.402 678.87 707.016 649.699 743.528C634.917 740.649 618.945 739.078 602.281 739.078C573.484 739.078 546.754 743.773 524.658 751.796C504.454 724.813 454.794 705.734 396.733 705.734C370.819 705.734 346.578 709.536 325.882 716.144C290.908 677.974 217.116 651.663 131.74 651.663C12.5922 651.663 -83.9968 702.904 -83.9971 766.112C-83.9971 796.694 -61.386 824.474 -24.5498 845.005V1202.28H1959.55V824.689H1952.09C2003.42 801.629 2036 767.19 2036 728.714C2036 659.284 1929.9 603 1799.03 603Z" fill="#89CDFF"/>
<path d="M-52 984.646C-52 984.646 568.869 904.829 979.134 905C1385.58 905.17 2036 984.646 2036 984.646V1281C2036 1281 1597.32 1179.61 979.134 1179.61C360.944 1179.61 -52 1281 -52 1281V984.646Z" fill="url(#paint1_linear_1_186)"/>
<path d="M-52 984.646C-52 984.646 568.869 904.829 979.134 905C1385.58 905.17 2036 984.646 2036 984.646V1281C2036 1281 1597.32 1179.61 979.134 1179.61C360.944 1179.61 -52 1281 -52 1281V984.646Z" fill="url(#paint2_linear_1_186)"/>
<g opacity="0.28">
<ellipse cx="224.892" cy="1055.11" rx="24.9866" ry="10.8655" transform="rotate(-7.54013 224.892 1055.11)" fill="#68BF82" style="mix-blend-mode:multiply"/>
</g>
<g opacity="0.28">
<ellipse cx="165.224" cy="1020.03" rx="39.5192" ry="17.1851" transform="rotate(-8.49369 165.224 1020.03)" fill="#68BF82" style="mix-blend-mode:multiply"/>
</g>
<path d="M170.651 840.903C170.708 840.779 170.671 840.666 170.59 840.556C170.38 840.271 169.874 840.02 169.948 839.653C170.047 839.155 170.541 839.03 170.389 838.446C170.385 838.434 170.382 838.421 170.377 838.408C170.197 837.84 170.459 837.2 170.196 836.979C169.935 836.766 170.578 836.609 170.354 836.276C170.223 836.086 170.174 835.921 170.19 835.793C170.199 835.702 170.23 835.6 170.262 835.466C170.369 835.179 169.96 834.45 169.504 834.34L169.584 834.386C169.526 834.38 169.471 834.383 169.422 834.394C168.991 834.494 168.781 833.932 168.574 833.795C168.564 833.788 168.554 833.78 168.546 833.773C168.542 833.774 168.532 833.771 168.529 833.771C168.448 833.727 168.4 833.667 168.376 833.615C168.363 833.588 168.371 833.545 168.387 833.506C168.387 833.506 168.387 833.506 168.387 833.506C168.407 833.457 168.441 833.416 168.466 833.419C168.505 833.423 168.545 833.42 168.586 833.403L168.572 833.402C168.719 833.365 168.884 833.324 169.09 833.252C169.583 833.088 169.578 833.371 169.984 833.49C170.002 833.502 170.061 833.528 170.077 833.544C170.133 833.575 170.198 833.606 170.276 833.638C170.873 833.89 171.558 834.028 171.738 834.991C171.754 835.094 171.775 835.184 171.801 835.266C171.975 835.856 172.726 835.918 172.398 836.911C172.148 837.611 172.472 837.831 172.808 838.186C172.991 838.364 173.18 838.572 173.266 838.938C173.376 839.414 173.321 839.951 173.236 840.433C173.137 840.994 173 841.502 173.034 841.818C173.097 842.406 173.232 843.194 173.1 844.029C173.054 844.322 173.066 844.64 173.089 844.97C173.133 845.571 173.215 846.21 173.05 846.798C172.796 847.708 172.465 848.987 172.247 849.577C172.03 850.165 171.98 850.309 172.093 850.882C172.158 851.212 172.08 851.663 171.806 852.038C171.669 852.227 171.484 852.18 171.399 851.984C171.276 851.699 171.368 851.469 171.139 851.318C170.682 851.016 170.507 850.889 170.785 850.527C171.063 850.166 170.453 849.98 170.529 849.768C170.603 849.555 170.966 849.566 170.708 848.473C170.45 847.382 170.386 846.787 170.324 846.377C170.277 846.067 170.449 845.506 170.487 844.962C170.499 844.785 170.497 844.613 170.469 844.449C170.356 843.785 170.441 842.434 170.238 841.898C170.037 841.364 170.442 841.35 170.651 840.903Z" fill="#427AC0"/>
<path d="M178.571 840.617C178.822 840.24 177.843 839.868 178.015 839.4C178.186 838.931 178.72 838.893 178.636 838.337C178.591 838.042 178.684 837.751 178.75 837.508C178.808 837.294 178.846 837.113 178.753 836.99C178.555 836.726 179.213 836.752 179.097 836.388C178.983 836.023 179.091 835.806 179.346 835.515C179.461 835.384 179.595 835.11 179.707 834.834C179.709 834.8 179.757 834.72 179.771 834.689C180.022 834.412 180.276 834.118 180.349 833.865C180.441 833.528 180.867 833.462 181.174 833.52C181.185 833.513 181.227 833.507 181.24 833.502C181.376 833.543 181.462 833.602 181.535 833.631C181.613 833.663 181.67 833.709 181.714 833.757C181.732 833.778 181.741 833.82 181.741 833.862C181.741 833.862 181.741 833.862 181.741 833.862C181.74 833.915 181.727 833.966 181.703 833.973C181.612 834 181.452 834.063 181.368 834.213L181.428 834.196C181.415 834.228 181.403 834.262 181.394 834.299C181.327 834.733 181.086 834.416 180.902 834.858C180.837 835.045 180.834 835.233 180.817 835.404L180.942 835.118C181.001 835.365 181.028 835.562 180.854 835.867C180.555 836.413 181.526 836.631 180.909 837.422C180.847 837.504 180.801 837.576 180.77 837.647C180.49 838.266 181.325 838.472 181.399 839.239C181.482 840.095 180.847 841.13 180.86 841.644C180.872 842.099 180.932 842.696 180.816 843.324C180.801 843.405 180.783 843.488 180.762 843.571C180.576 844.287 180.853 845.207 180.553 845.989C180.252 846.771 179.861 847.877 179.617 848.383C179.372 848.889 179.317 849.012 179.403 849.523C179.453 849.817 179.354 850.21 179.064 850.525C178.919 850.684 178.736 850.631 178.661 850.454C178.55 850.196 178.653 849.998 178.431 849.852C177.988 849.561 177.819 849.439 178.113 849.136C178.407 848.834 177.807 848.635 177.892 848.452C177.977 848.269 178.338 848.3 178.132 847.321C177.926 846.343 177.894 845.814 177.854 845.447C177.814 845.081 178.182 844.347 178.11 843.749C178.09 843.582 178.09 843.368 178.097 843.136C178.116 842.54 178.18 841.821 178.069 841.464C177.916 840.968 178.32 840.994 178.571 840.617Z" fill="#427AC0"/>
<path fill-rule="evenodd" clip-rule="evenodd" d="M161.324 855.743C162.862 849.446 170.674 844.836 177.367 846.47C184.749 848.273 188.24 854.534 186.702 860.831C185.913 864.062 183.77 866.627 180.967 868.141C180.967 868.143 180.968 868.144 180.968 868.145C180.994 868.181 181.019 868.216 181.044 868.252C181.829 868.779 182.108 869.51 182.125 870.074C183.443 872.743 183.959 875.922 183.435 879.174C184.674 880.215 185.709 881.499 186.499 882.95C188.744 879.71 193.125 878.059 197.544 879.138C200.484 879.855 202.851 881.639 204.254 883.903C206.325 882.989 208.815 882.734 211.326 883.347C214.442 884.108 216.913 886.041 218.246 888.44C219.609 888.169 221.075 888.183 222.546 888.542C225.942 889.371 228.476 891.808 229.369 894.702C229.729 894.729 230.092 894.786 230.454 894.874C234.194 895.788 236.452 899.701 235.497 903.615C234.541 907.529 230.734 909.962 226.994 909.049C224.784 908.509 223.092 906.923 222.274 904.908C221.093 905.063 219.849 905.006 218.601 904.701C216.001 904.066 213.907 902.489 212.667 900.486C210.954 900.935 209.051 900.975 207.136 900.508C204.494 899.863 202.316 898.374 200.901 896.474C198.665 897.692 195.879 898.106 193.079 897.422C190.913 896.893 189.059 895.785 187.67 894.333C185.589 901.768 178.561 906.401 171.73 904.733C165.12 903.119 161.063 896.185 162.238 888.891C158.352 885.626 156.471 879.964 157.864 874.258C158.194 872.904 158.688 871.638 159.314 870.478C158.196 870.078 157.513 869.233 157.479 867.727C157.407 864.484 158.722 860.927 161.058 858.005C161.052 857.265 161.137 856.509 161.324 855.743Z" fill="url(#paint3_linear_1_186)"/>
<path fill-rule="evenodd" clip-rule="evenodd" d="M178.363 848.719C184.598 848.708 187.83 853.568 187.522 860.788C187.394 863.762 186.503 866.469 185.109 868.61C186.339 870.724 187.055 873.31 187.031 876.098C187.023 877.099 186.917 878.072 186.73 879.006C188.365 880.252 189.729 881.961 190.607 884.038C191.107 885.219 191.409 886.43 191.535 887.63C192.529 887.781 193.53 888.061 194.511 888.481C200.006 890.834 202.787 896.65 200.723 901.471C198.658 906.291 192.53 908.292 187.035 905.939C184.047 904.659 181.864 902.354 180.823 899.743C176.661 899.526 172.663 896.785 170.813 892.412C169.934 890.334 169.657 888.164 169.902 886.122C167.407 883.756 165.816 880.062 165.85 875.921C165.878 872.617 166.935 869.613 168.649 867.353C167.706 865.293 167.215 862.836 167.329 860.184C167.662 852.409 172.748 848.479 178.363 848.719Z" fill="#D5F5EA"/>
<ellipse cx="174.444" cy="859.226" rx="1.16919" ry="1.55578" transform="rotate(3.99088 174.444 859.226)" fill="#4F2F22"/>
<ellipse cx="1.16919" cy="1.55578" rx="1.16919" ry="1.55578" transform="matrix(-0.999892 -0.0146896 -0.0146896 0.999892 185.925 857.65)" fill="#4F2F22"/>
<path d="M180.795 863.357C181.011 863.38 181.237 863.288 181.428 863.085C181.619 862.882 181.764 862.577 181.802 862.217C181.84 861.858 181.763 861.529 181.619 861.291C181.475 861.052 181.273 860.915 181.057 860.892C180.841 860.869 180.615 860.961 180.424 861.164C180.233 861.367 180.089 861.672 180.051 862.032C180.013 862.391 180.09 862.72 180.234 862.958C180.378 863.197 180.579 863.334 180.795 863.357Z" stroke="black" stroke-width="0.497071"/>
<mask id="mask0_1_186" style="mask-type:alpha" maskUnits="userSpaceOnUse" x="128" y="890" width="126" height="75">
<path fill-rule="evenodd" clip-rule="evenodd" d="M128.258 943.255C126.529 937.349 157.151 891.775 192.014 890.726C235.067 889.43 252.625 936.187 253.342 947.492C253.41 947.665 253.472 947.839 253.523 948.014C253.472 948.206 253.415 948.395 253.355 948.582C253.353 948.603 253.355 948.624 253.353 948.644C253.347 948.728 253.312 948.807 253.254 948.884C248.187 963.307 215.503 964.206 188.584 964.762C164.288 965.263 128.918 958.275 128.258 943.255Z" fill="#FF8CC7"/>
</mask>
<g mask="url(#mask0_1_186)">
<path fill-rule="evenodd" clip-rule="evenodd" d="M128.26 943.249C126.546 937.327 157.161 891.773 192.017 890.724C235.07 889.429 252.628 936.185 253.345 947.491C253.413 947.664 253.475 947.837 253.526 948.012C253.475 948.204 253.418 948.394 253.358 948.582C253.357 948.602 253.358 948.623 253.356 948.643C253.35 948.727 253.316 948.805 253.257 948.882C248.192 963.306 215.506 964.205 188.586 964.76C164.288 965.262 128.913 958.273 128.26 943.249Z" fill="url(#paint4_radial_1_186)"/>
<path opacity="0.54" d="M125.421 931.522C164.268 936.423 240.083 927.944 238.033 900.046L271.757 943.203L230.884 972.85L129.166 974.814C72.6566 954.482 58.426 923.07 125.421 931.522Z" fill="#AB1F43"/>
<path d="M220.007 912.665C217.485 917.19 210.638 917.466 204.862 914.247C199.087 911.029 196.57 905.535 199.092 901.009C201.614 896.484 208.768 895.446 214.543 898.664C220.319 901.883 222.529 908.139 220.007 912.665Z" fill="#F8E2E6"/>
<path d="M150.159 923.073C150.986 924.696 149.688 926.767 147.576 927.843C145.463 928.919 143.336 928.592 142.51 926.969C141.683 925.346 142.818 923.036 144.93 921.96C147.043 920.884 149.333 921.45 150.159 923.073Z" fill="#F8E2E6"/>
<path d="M189.827 898.618C190.071 900.423 188.163 901.95 185.814 902.268C183.464 902.586 181.565 901.575 181.32 899.77C181.076 897.965 182.909 896.16 185.258 895.842C187.608 895.523 189.583 896.813 189.827 898.618Z" fill="#F8E2E6"/>
<path d="M229.042 914.533C228.264 915.816 226.486 915.949 225.083 915.098C223.68 914.247 223.182 912.735 223.96 911.452C224.738 910.169 226.617 909.821 228.02 910.672C229.423 911.523 229.82 913.25 229.042 914.533Z" fill="#F8E2E6"/>
<path d="M174.948 907.101C177.159 910.93 174.235 916.141 169.203 919.048C164.171 921.954 158.937 921.454 156.726 917.625C154.514 913.796 157.012 908.027 162.044 905.121C167.076 902.215 172.736 903.272 174.948 907.101Z" fill="#F8E2E6"/>
<path d="M241.918 931.357C240.398 933.449 236.852 933.078 234.028 931.027C231.204 928.975 230.171 926.02 231.691 923.927C233.211 921.835 236.952 921.844 239.776 923.896C242.6 925.947 243.438 929.264 241.918 931.357Z" fill="#F8E2E6"/>
<path d="M241.918 931.357C240.398 933.449 236.852 933.078 234.028 931.027C231.204 928.975 230.171 926.02 231.691 923.927C233.211 921.835 236.952 921.844 239.776 923.896C242.6 925.947 243.438 929.264 241.918 931.357Z" fill="#F8E2E6"/>
<path fill-rule="evenodd" clip-rule="evenodd" d="M187.934 915.464C189.626 913.657 191.893 912.947 193.571 913.883C195.692 915.067 196.236 918.121 194.582 921.087C194.082 921.982 193.438 922.765 192.726 923.392L192.798 923.393L188.005 927.891L183.111 923.422L183.118 923.422C182.401 922.754 181.739 921.946 181.195 921.044C179.442 918.135 180.236 915.332 182.301 914.088C183.926 913.108 186.189 913.735 187.934 915.464Z" fill="#F8E2E6"/>
</g>
<path d="M247.525 947.852C243.144 957.942 213.531 960.209 191.703 961.226C172.016 962.142 137.188 952.774 134.207 944.95C137.887 938.44 171.396 933.928 191.502 933.673C210.749 933.429 243.744 940.586 247.525 947.852Z" fill="#EDC3C3"/>
<path d="M220.731 950.438C220.641 956.117 207.178 959.308 191.781 959.065C176.384 958.823 161.318 955.107 161.407 949.428C161.497 943.748 176.439 939.192 191.836 939.435C207.233 939.678 220.821 944.759 220.731 950.438Z" fill="#A73552"/>
<mask id="mask1_1_186" style="mask-type:alpha" maskUnits="userSpaceOnUse" x="171" y="945" width="37" height="73">
<path d="M202.519 1014.04C212.254 1003.15 205.74 953.922 202.674 948.08C200.191 944.309 183.881 944.632 180.954 948.839C180.44 965.756 181.375 972.923 177.999 987.82C175.472 998.972 170.765 1010.56 172.166 1013.97C173.306 1016.74 196.466 1020.81 202.519 1014.04Z" fill="url(#paint5_linear_1_186)"/>
</mask>
<g mask="url(#mask1_1_186)">
<path d="M202.519 1014.04C212.254 1003.15 205.74 953.922 202.674 948.08C200.191 944.309 183.881 944.632 180.954 948.839C180.44 965.756 181.375 972.923 177.999 987.82C175.472 998.972 170.765 1010.56 172.166 1013.97C173.306 1016.74 196.466 1020.81 202.519 1014.04Z" fill="url(#paint6_linear_1_186)"/>
<path opacity="0.26" d="M219.092 1019.02C228.205 1005.96 221.758 949.817 218.37 943.284C215.681 939.096 196.566 938.229 193.878 943.226C198.263 959.782 198.38 988.019 193.741 1001.32C188.512 1016.31 172.718 1024.55 166.742 1029.92C164.232 1032.18 213.427 1027.15 219.092 1019.02Z" fill="#F67B6A"/>
</g>
<path d="M171.972 1022.63C171.214 1021.47 164.828 1003.35 167.908 992.058C172.579 974.939 176.191 1010.9 175.665 1015.13C177.164 1004.66 180.588 986.26 182.281 996.455C183.975 1006.65 183.952 1013.82 183.729 1016.13C186.869 1005.54 194.042 986.884 197.617 997C199.983 1003.69 200.65 1008.99 200.657 1012.45C202.134 997.854 205.048 975.87 207.355 981.445C209.872 987.53 207.242 1000.6 205.613 1006.38C207.675 1001.31 211.914 992.425 212.377 997.475C212.84 1002.52 204.961 1017.87 200.964 1024.91C192.437 1026.06 176.294 1029.25 171.972 1022.63Z" fill="url(#paint7_linear_1_186)"/>
<path d="M246.629 1051.04C250.993 1045.39 246.269 1023.81 243.681 1021.66C241.657 1020.31 230.245 1021.96 228.508 1023.98C229.417 1031.09 224.59 1032.58 223.766 1039.37C223.24 1043.7 221.49 1049.51 221.759 1051.07C222.461 1055.15 243.773 1054.74 246.629 1051.04Z" fill="#FFCCBA"/>
<mask id="mask2_1_186" style="mask-type:alpha" maskUnits="userSpaceOnUse" x="208" y="1013" width="56" height="31">
<path d="M263.182 1028.4C262.193 1039.63 249.432 1042.72 234.771 1043.42C220.11 1044.12 208.985 1041.46 208.488 1031C208.09 1022.64 218.693 1014.3 233.354 1013.61C248.015 1012.91 262.685 1017.95 263.182 1028.4Z" fill="#E64B73"/>
</mask>
<g mask="url(#mask2_1_186)">
<path d="M263.182 1028.4C262.193 1039.63 249.432 1042.72 234.771 1043.42C220.11 1044.12 208.985 1041.46 208.488 1031C208.09 1022.64 218.693 1014.3 233.354 1013.61C248.015 1012.91 262.685 1017.95 263.182 1028.4Z" fill="#E64B73"/>
<path d="M263.182 1028.4C262.193 1039.63 249.432 1042.72 234.771 1043.42C220.11 1044.12 208.985 1041.46 208.488 1031C208.09 1022.64 218.693 1014.3 233.354 1013.61C248.015 1012.91 262.685 1017.95 263.182 1028.4Z" fill="url(#paint8_radial_1_186)"/>
</g>
<path d="M243.548 1025.95C246.241 1025.38 246.668 1021.92 246.577 1020.81C243.808 1021.18 238.283 1023.23 238.073 1024.18C237.812 1025.37 240.182 1026.67 243.548 1025.95Z" fill="url(#paint9_linear_1_186)"/>
<path d="M225.779 1026C222.999 1025.52 222.635 1022.7 222.564 1021.32C225.427 1021.18 231.56 1022.27 231.912 1023.38C232.352 1024.78 229.751 1026.7 225.779 1026Z" fill="url(#paint10_linear_1_186)"/>
<path d="M241.42 1021.67C245.988 1024.01 261.925 1008.52 260.383 1001.35C259.205 995.869 248.701 986.916 244.531 993.84C239.319 1002.5 235.711 1018.76 241.42 1021.67Z" fill="#46281C"/>
<path d="M213.604 1002.19C215.195 1004.72 221.297 1006.25 223.795 1004.83C223.621 1003.87 220.896 1002.19 219.567 999.773C218.238 997.355 216.496 996.02 215.791 995.654C215.391 995.694 214.574 995.977 213.983 996.44C212.334 997.733 211.833 999.366 213.604 1002.19Z" fill="url(#paint11_linear_1_186)"/>
<path d="M217.824 1009.52C218.618 999.795 221.37 990.455 223.342 987.708C223.342 987.708 226.779 983.583 231.582 983.135C240.32 982.321 242.805 985.894 242.805 985.894C247.215 990.624 249.352 997.298 250.414 1009.3C251.248 1018.72 247.498 1021.7 244.041 1022.75C242.678 1023.16 240.24 1024.4 234.487 1024.44C227.819 1024.49 228.483 1023.99 224.571 1023.06C219.728 1021.9 217.038 1019.15 217.824 1009.52Z" fill="url(#paint12_linear_1_186)"/>
<path d="M255.927 998.492C255.249 1001.42 250.004 1004.95 247.194 1004.46C247.048 1003.49 249.07 1000.98 249.54 998.247C250.01 995.513 251.218 993.66 251.763 993.075C252.151 992.975 253.011 992.964 253.716 993.199C255.684 993.856 256.682 995.226 255.927 998.492Z" fill="url(#paint13_linear_1_186)"/>
<path d="M233.87 995.129C233.157 995.132 232.547 994.645 232.9 994.207C233.063 994.079 233.695 993.977 233.924 993.962C234.141 993.948 234.563 993.989 234.768 994.149C235.377 994.624 234.583 995.126 233.87 995.129Z" fill="#4F2F22"/>
<ellipse cx="233.882" cy="997.218" rx="0.878784" ry="0.901977" fill="#4F2F22"/>
<ellipse cx="0.773741" cy="1.05559" rx="0.773741" ry="1.05559" transform="matrix(0.990517 0.136733 -0.129935 0.991609 228.538 992.53)" fill="#4F2F22"/>
<ellipse cx="0.773612" cy="1.05575" rx="0.773612" ry="1.05575" transform="matrix(-0.990682 0.136756 0.129914 0.991452 238.936 992.53)" fill="#4F2F22"/>
<path d="M250.063 997.833C238.16 1003.65 224.157 1000.26 218.789 997.833C216.922 1003.73 216.339 1013.48 219.081 1018C222.349 1024.83 243.936 1026.98 248.782 1019.16C253.494 1011.55 251.288 1002.06 250.063 997.833Z" fill="#EEEEF6"/>
<path d="M212.778 1023.16C210.159 1022.03 218.015 999.533 218.015 999.533C230.905 1004.11 237.983 1003.83 250.405 999.533C250.405 999.533 257.158 1021.74 254.54 1023.16C251.921 1024.57 215.397 1024.29 212.778 1023.16Z" fill="#3AA6FF"/>
<path d="M217.861 1019.79C215.993 1018.98 218.72 1001.8 218.72 1001.8C227.914 1005.06 238.788 1005.57 247.648 1002.5C247.648 1002.5 249.515 1018.78 247.648 1019.79C245.78 1020.8 219.729 1020.59 217.861 1019.79Z" fill="#EEEEF6"/>
<path fill-rule="evenodd" clip-rule="evenodd" d="M225.617 978.59C227.192 977.536 228.937 977.015 230.997 977.779C232.238 978.239 233.09 978.687 233.802 979.583C234.881 978.963 237.623 977.575 239.953 977.961C244.997 978.796 247.509 982.635 248.942 987.615C249.471 989.455 249.647 991.487 249.647 993.379C250.894 995.166 252.136 997.324 252.797 999.541C254.278 1004.51 254.247 1009.13 250.489 1012.68C248.273 1014.78 244.908 1015.23 243.943 1014.84C242.977 1014.45 240.36 1012.97 241.48 1009.13C242.6 1005.29 244.614 1003.46 247.209 1000.32C248.073 999.277 248.34 997.899 248.281 996.462C247.62 993.887 246.331 990.863 243.861 990.128C240.011 988.981 235.49 989.957 234.35 986.028C234.13 985.271 234.279 984.637 234.398 984.002C227.502 983.955 225.458 986.873 225.458 986.873C221.021 991.6 218.874 998.273 217.812 1010.27C217.689 1011.66 217.669 1012.91 217.73 1014.03C217.468 1013.98 217.197 1013.89 216.923 1013.75C216.346 1013.46 215.731 1013 215.106 1012.39C213.989 1011.31 213.58 1010.51 212.959 1009.18C211.649 1006.38 212.194 1004.07 213.279 1001.76C213.817 1000.61 214.497 999.451 215.145 998.244C215.796 997.031 216.423 995.756 216.874 994.354C217.241 993.215 217.465 992.142 217.65 991.116C217.834 990.094 217.983 989.105 218.199 988.153C218.634 986.235 219.349 984.434 221.209 982.613C222.629 981.223 224.055 979.634 225.617 978.59Z" fill="#FFC92B"/>
<path d="M222.443 982.525C223.98 982.06 224.595 983.528 224.711 984.32C223.842 984.968 221.919 986.111 221.172 985.509C220.238 984.757 220.522 983.107 222.443 982.525Z" fill="#D6AA80"/>
<path d="M243.322 982.561C241.808 982.023 241.126 983.46 240.975 984.246C241.813 984.934 243.683 986.168 244.456 985.603C245.424 984.895 245.214 983.234 243.322 982.561Z" fill="#D6AA80"/>
<path opacity="0.32" d="M344.316 839.716C398.166 849.3 217.645 858.941 186.654 858.133C280.832 878.58 418.676 852.637 418.941 836.439C419.207 820.242 302.322 825.776 296.824 808.333C291.326 790.89 532.151 832.896 529.371 762.341C526.592 691.785 213.991 746.366 214.385 722.369C214.778 698.372 402.544 719.982 395.315 667.129C385.814 597.664 106.88 666.913 61.1554 643.646C-16.7245 604.016 -143.845 666.386 -166.957 612C-153.661 679.427 -10.5319 616.755 57.9882 653.795C111.223 682.572 281.468 654.821 291.509 666.627C316.873 696.447 60.4692 685.481 59.9057 719.835C58.902 781.027 407.627 739.641 407.076 773.236C406.604 802 227.574 778.026 227.095 807.189C226.913 818.288 315.127 834.521 344.316 839.716Z" fill="white"/>
</g>
<defs>
<linearGradient id="paint0_linear_1_186" x1="1017" y1="-168" x2="1231.84" y2="1415.86" gradientUnits="userSpaceOnUse">
<stop offset="0.115085" stop-color="#C4E6FB"/>
<stop offset="0.564464" stop-color="#C1E8FD"/>
</linearGradient>
<linearGradient id="paint1_linear_1_186" x1="846.796" y1="796.464" x2="845.541" y2="1122.85" gradientUnits="userSpaceOnUse">
<stop stop-color="#A0E475"/>
<stop offset="1" stop-color="#4FAE89"/>
</linearGradient>
<linearGradient id="paint2_linear_1_186" x1="846.796" y1="796.464" x2="845.541" y2="1122.85" gradientUnits="userSpaceOnUse">
<stop stop-color="#A0E475"/>
<stop offset="1" stop-color="#4FAE89"/>
</linearGradient>
<linearGradient id="paint3_linear_1_186" x1="196.664" y1="846.19" x2="196.516" y2="909.165" gradientUnits="userSpaceOnUse">
<stop stop-color="#0F2CB0"/>
<stop offset="1" stop-color="#457EC1"/>
</linearGradient>
<radialGradient id="paint4_radial_1_186" cx="0" cy="0" r="1" gradientTransform="matrix(12.312 47.9521 -75.0932 19.2808 183.314 891.073)" gradientUnits="userSpaceOnUse">
<stop stop-color="#E8A982"/>
<stop offset="1" stop-color="#E64B73"/>
</radialGradient>
<linearGradient id="paint5_linear_1_186" x1="191.483" y1="945.394" x2="189.287" y2="1017.76" gradientUnits="userSpaceOnUse">
<stop stop-color="#FAF2E7"/>
<stop offset="1" stop-color="#FFDB90"/>
</linearGradient>
<linearGradient id="paint6_linear_1_186" x1="191.483" y1="945.394" x2="189.287" y2="1017.76" gradientUnits="userSpaceOnUse">
<stop stop-color="#FFEDD4"/>
<stop offset="1" stop-color="#FFCAB8"/>
</linearGradient>
<linearGradient id="paint7_linear_1_186" x1="188.613" y1="978.317" x2="190.386" y2="1042.02" gradientUnits="userSpaceOnUse">
<stop stop-color="#499A7B"/>
<stop offset="1" stop-color="#81D07C"/>
</linearGradient>
<radialGradient id="paint8_radial_1_186" cx="0" cy="0" r="1" gradientTransform="matrix(2.02287 18.8631 -34.6334 3.15172 236.6 1013.16)" gradientUnits="userSpaceOnUse">
<stop stop-color="#E8A982"/>
<stop offset="1" stop-color="#E64B73"/>
</radialGradient>
<linearGradient id="paint9_linear_1_186" x1="242.122" y1="1021.73" x2="241.776" y2="1026.59" gradientUnits="userSpaceOnUse">
<stop offset="0.288798" stop-color="#D6AA80"/>
<stop offset="1" stop-color="#B0814F"/>
</linearGradient>
<linearGradient id="paint10_linear_1_186" x1="227.211" y1="1021.48" x2="227.116" y2="1027.08" gradientUnits="userSpaceOnUse">
<stop offset="0.288798" stop-color="#D6AA80"/>
<stop offset="1" stop-color="#B0814F"/>
</linearGradient>
<linearGradient id="paint11_linear_1_186" x1="220.606" y1="997.086" x2="209.715" y2="1005.4" gradientUnits="userSpaceOnUse">
<stop stop-color="#D6AA80"/>
<stop offset="1" stop-color="#B0814F"/>
</linearGradient>
<linearGradient id="paint12_linear_1_186" x1="233.386" y1="1001.14" x2="233.386" y2="1033.95" gradientUnits="userSpaceOnUse">
<stop stop-color="#D6AA80"/>
<stop offset="1" stop-color="#B0814F"/>
</linearGradient>
<linearGradient id="paint13_linear_1_186" x1="247.227" y1="1000.12" x2="256.283" y2="1003.14" gradientUnits="userSpaceOnUse">
<stop stop-color="#D6AA80"/>
<stop offset="1" stop-color="#B0814F"/>
</linearGradient>
<clipPath id="clip0_1_186">
<rect width="1920" height="1080" fill="white"/>
</clipPath>
</defs>
</svg>
