<svg width="1920" height="1080" viewBox="0 0 1920 1080" fill="none" xmlns="http://www.w3.org/2000/svg">
<g clip-path="url(#clip0_1_336)">
<rect width="1920" height="1080" fill="url(#paint0_linear_1_336)"/>
<path d="M1711.39 78.5606L1707.29 84.136V97.1456L1706.92 112.757L1708.04 124.651L1709.81 130.949L1715.48 137.126L1724.51 145.618L1734.37 156.683L1739.23 160.018L1745.92 159.258L1765.01 155.398L1784.62 149.993L1803.71 146.905L1818.67 142.015L1827.18 139.699L1833.37 133.78L1834.66 123.743L1833.89 106.758L1834.66 87.4559L1833.63 80.2498L1825.12 74.0733L1814.8 66.3526L1805.51 59.6614L1799.06 56.573L1792.36 56.3158L1783.07 59.404L1767.08 62.2349L1752.11 65.8379L1740.51 68.9261L1730.7 71.7572L1718.1 75.2152L1711.39 78.5606Z" fill="white"/>
<path fill-rule="evenodd" clip-rule="evenodd" d="M1824.23 80.6971C1827.91 79.8086 1831.19 80.8426 1833.27 83.159C1834.68 84.7407 1835.53 86.9156 1835.56 89.4852L1836 128.474C1836.07 134.818 1831.11 141.18 1824.93 142.674L1746.47 161.636C1740.29 163.129 1735.21 159.191 1735.14 152.848L1734.7 113.858C1734.63 107.514 1739.59 101.152 1745.77 99.6581L1788.87 89.2421L1801.82 86.1122L1824.23 80.6971ZM1764.12 132.968C1763.38 132.95 1762.64 133.026 1761.9 133.193C1760.03 133.616 1758.52 134.567 1757.36 136.047C1756.21 137.527 1755.63 139.274 1755.63 141.287C1755.63 143.337 1756.19 144.772 1757.31 145.59C1758.43 146.408 1759.88 146.615 1761.65 146.214C1763.54 145.787 1764.91 144.965 1765.76 143.748C1766.61 142.531 1767.1 141.353 1767.23 140.216L1764.73 140.309C1764.42 142.264 1763.49 143.417 1761.93 143.768C1759.8 144.25 1758.74 143.142 1758.74 140.446C1758.74 137.676 1759.77 136.056 1761.85 135.588C1762.61 135.416 1763.33 135.419 1764.01 135.597L1764.43 137.553L1766.82 136.764L1766.32 133.387C1765.6 133.125 1764.86 132.985 1764.12 132.968ZM1788.61 128.237C1787.76 127.709 1786.77 127.573 1785.64 127.828C1784.63 128.058 1783.76 128.506 1783.06 129.173C1782.36 129.84 1781.82 130.64 1781.45 131.573C1781.15 130.68 1780.64 130.091 1779.9 129.806C1779.15 129.521 1778.32 129.482 1777.4 129.691C1776.47 129.901 1775.68 130.291 1775.04 130.862C1774.39 131.433 1773.87 132.105 1773.48 132.876V130.825L1768.68 131.911V134.211L1770.51 133.796V141.664L1768.65 142.084V144.355L1775.81 142.737V140.465L1773.48 140.992V136.117C1773.5 135.263 1773.74 134.456 1774.2 133.696C1774.67 132.936 1775.38 132.447 1776.34 132.229C1777.08 132.062 1777.66 132.176 1778.08 132.571C1778.49 132.966 1778.7 133.755 1778.7 134.937V139.812L1778.03 139.964V142.235L1783.53 140.992V138.721L1781.67 139.141V134.294C1781.69 133.44 1781.93 132.629 1782.38 131.862C1782.83 131.095 1783.55 130.599 1784.53 130.378C1785.29 130.206 1785.88 130.319 1786.3 130.714C1786.71 131.109 1786.92 131.898 1786.92 133.08V137.955L1786.23 138.112V140.384L1791.72 139.141V136.87L1789.89 137.284V131.328C1789.89 129.795 1789.47 128.765 1788.61 128.237ZM1799.75 118.268V120.54L1802.44 119.932V126.22C1802.07 125.639 1801.55 125.226 1800.87 124.981C1800.2 124.737 1799.37 124.726 1798.39 124.948C1796.46 125.383 1795.05 126.38 1794.15 127.94C1793.26 129.5 1792.81 131.167 1792.81 132.94C1792.81 134.879 1793.28 136.296 1794.24 137.188C1795.19 138.081 1796.48 138.344 1798.11 137.975C1799.24 137.72 1800.15 137.25 1800.85 136.567C1801.54 135.884 1802.07 135.14 1802.44 134.337V136.72L1807.25 135.634V133.362L1805.41 133.776V116.989L1799.75 118.268ZM1799.25 127.136C1800.14 126.935 1800.89 127.07 1801.5 127.542C1802.11 128.013 1802.42 128.764 1802.44 129.794V130.735C1802.42 131.663 1802.11 132.612 1801.5 133.581C1800.89 134.55 1800.07 135.15 1799.06 135.38C1798.19 135.576 1797.44 135.402 1796.82 134.859C1796.2 134.316 1795.89 133.389 1795.89 132.078C1795.89 130.785 1796.2 129.695 1796.82 128.807C1797.44 127.918 1798.25 127.361 1799.25 127.136ZM1825.93 112.282C1825.34 112.277 1824.76 112.34 1824.18 112.47C1822.72 112.8 1821.56 113.533 1820.71 114.667C1819.86 115.801 1819.44 117.042 1819.44 118.39V120.44L1817.8 120.811V123L1819.44 122.63V130.607L1817.58 131.028V133.3L1824.74 131.681V129.409L1822.38 129.942V121.964L1825.52 121.255V119.066L1822.38 119.775V117.31C1822.38 115.87 1822.95 115.02 1824.1 114.761C1824.49 114.673 1824.87 114.652 1825.24 114.697L1825.82 116.588L1828.15 115.783L1827.63 112.717C1827.09 112.432 1826.53 112.287 1825.93 112.282ZM1808.97 127.544V130.037L1815.52 128.556V126.062L1808.97 127.544ZM1761.47 106.71C1761.47 104.529 1759.65 103.22 1757.45 103.812C1755.25 104.405 1753.43 106.689 1753.43 108.87V110.195L1750.76 110.916V109.59C1750.76 107.409 1748.94 106.1 1746.74 106.692C1744.54 107.284 1742.72 109.568 1742.72 111.749C1742.72 113.93 1744.54 115.239 1746.74 114.647L1748.08 114.287V116.938L1746.74 117.299C1744.54 117.891 1742.72 120.175 1742.72 122.355C1742.72 124.536 1744.54 125.846 1746.74 125.254C1748.94 124.662 1750.76 122.377 1750.76 120.196V118.87L1753.43 118.15V119.476C1753.43 121.657 1755.25 122.966 1757.45 122.374C1759.65 121.782 1761.47 119.497 1761.47 117.316C1761.47 115.136 1759.65 113.827 1757.45 114.419L1756.11 114.779V112.128L1757.45 111.767C1759.65 111.175 1761.47 108.891 1761.47 106.71Z" fill="#0D1D55"/>
<path d="M1746.74 109.771C1747.5 109.568 1748.08 109.988 1748.08 110.737V112.063L1746.74 112.423C1745.98 112.626 1745.4 112.206 1745.4 111.457C1745.4 110.708 1745.98 109.974 1746.74 109.771Z" fill="#0D1D55"/>
<path d="M1757.45 106.75C1758.21 106.546 1758.79 106.966 1758.79 107.716C1758.79 108.465 1758.21 109.198 1757.45 109.401L1756.11 109.761V108.435C1756.11 107.686 1756.69 106.953 1757.45 106.75Z" fill="#0D1D55"/>
<path d="M1750.78 113.728L1753.45 113.008V115.66L1750.78 116.379V113.728Z" fill="#0D1D55"/>
<path d="M1746.74 119.95L1748.08 119.59V120.916C1748.08 121.665 1747.5 122.399 1746.74 122.602C1745.98 122.805 1745.4 122.385 1745.4 121.636C1745.4 120.887 1745.98 120.154 1746.74 119.95Z" fill="#0D1D55"/>
<path d="M1756.11 117.439L1757.45 117.079C1758.21 116.876 1758.79 117.296 1758.79 118.045C1758.79 118.794 1758.21 119.528 1757.45 119.731C1756.69 119.934 1756.11 119.514 1756.11 118.765V117.439Z" fill="#0D1D55"/>
<path fill-rule="evenodd" clip-rule="evenodd" d="M1795.65 54.0164C1795.31 54.0329 1794.54 54.1238 1794.09 54.1983C1793.72 54.2597 1789.66 55.2205 1773.27 59.1226C1772.13 59.3942 1759.36 62.4352 1744.88 65.8804C1730.41 69.3255 1718.35 72.208 1718.08 72.2858C1716.64 72.7072 1715.08 73.4174 1713.92 74.1757C1711.04 76.0618 1708.79 78.6048 1707.38 81.5838C1706.44 83.5599 1705.95 85.3798 1705.8 87.4719C1705.77 87.8292 1705.81 91.9908 1705.97 106.132C1706.08 116.142 1706.18 124.731 1706.2 125.218C1706.22 125.705 1706.26 126.261 1706.28 126.454C1706.59 128.867 1707.49 130.974 1708.94 132.711C1709.33 133.177 1711.31 135.161 1712.1 135.87C1712.85 136.555 1714.59 138.27 1716.52 140.227C1718.25 141.982 1719.7 143.489 1723.15 147.094C1723.65 147.615 1724.36 148.356 1724.73 148.741C1725.09 149.126 1725.91 149.986 1726.55 150.653C1727.18 151.319 1727.86 152.032 1728.06 152.237C1728.26 152.443 1728.82 153.03 1729.31 153.542C1730.86 155.163 1732.36 156.721 1732.53 156.874C1732.62 156.956 1732.98 157.288 1733.32 157.613C1734.19 158.437 1734.82 159.004 1735.22 159.322C1736.37 160.232 1737.99 161.068 1739.29 161.42C1740.17 161.658 1740.9 161.747 1742.76 161.841L1743.15 161.861V160.558V159.255L1742.91 159.269C1742.56 159.289 1741.79 159.226 1741.31 159.137C1739.99 158.895 1738.6 158.249 1737.33 157.293C1736.23 156.473 1735.15 155.422 1734.13 154.179C1733.85 153.849 1726.32 145.926 1725.05 144.639C1724.61 144.185 1722.48 142.018 1720.33 139.822C1718.18 137.626 1716.06 135.466 1715.62 135.022C1712.59 131.956 1712.12 131.447 1711.42 130.485C1710.43 129.127 1710.07 128.41 1709.78 127.222C1709.58 126.434 1709.51 125.851 1709.49 124.721C1709.48 124.251 1709.38 115.806 1709.27 105.955C1709.06 87.42 1709.07 87.7769 1709.18 86.8566C1709.45 84.7301 1710.44 82.3809 1711.85 80.5174C1712.34 79.8629 1712.64 79.5191 1713.27 78.8985C1714.61 77.5518 1715.91 76.6572 1717.54 75.9412C1718.04 75.724 1719.03 75.3882 1719.52 75.2696C1719.9 75.177 1792.94 57.786 1793.79 57.5846C1794.78 57.351 1795.21 57.2934 1796.16 57.2682C1796.88 57.2492 1797.32 57.2754 1797.89 57.3703C1798.65 57.4958 1799.46 57.7535 1800.14 58.0836C1801.2 58.6041 1803.33 59.7971 1804.24 60.3827C1804.41 60.4893 1808 63.0836 1812.22 66.1478C1823.11 74.0418 1824.25 74.8709 1827.65 77.3576C1830.5 79.4341 1830.72 79.6046 1831.11 79.9856C1831.81 80.6709 1832.26 81.2738 1832.6 81.9779C1832.99 82.7848 1833.06 83.1132 1833.14 84.4017C1833.2 85.2972 1833.24 88.0241 1833.21 89.5679L1833.19 91.0361L1833.27 91.0367C1833.31 91.037 1833.81 91.0782 1834.39 91.1283C1834.96 91.1783 1835.44 91.2119 1835.45 91.2028C1835.46 91.1938 1835.47 89.8206 1835.47 88.1514C1835.48 85.6049 1835.48 85.0139 1835.43 84.4794C1835.24 81.9481 1834.91 80.5068 1834.28 79.3757C1833.84 78.5819 1833.26 77.859 1832.63 77.3011C1832.46 77.1559 1832.28 76.997 1832.23 76.9481C1831.78 76.5446 1829.48 74.8028 1826.91 72.9199C1826.66 72.7381 1826.08 72.3118 1825.61 71.9726C1824.25 70.9737 1819.23 67.3301 1817.61 66.1613C1816.14 65.1005 1813.48 63.1742 1813.17 62.9446C1813.02 62.8311 1812.64 62.5568 1812.33 62.3349C1812.02 62.113 1811.14 61.4768 1810.38 60.9211C1809.62 60.3654 1808.73 59.7169 1808.4 59.4801C1807.36 58.7274 1806.35 57.9565 1806.11 57.7391C1805.44 57.135 1804.29 56.4309 1802.73 55.6735C1800.75 54.7095 1799.66 54.3404 1798.14 54.1222C1797.38 54.013 1796.48 53.9749 1795.65 54.0164Z" fill="#0D1D55"/>
<path opacity="0.25" d="M152.971 422C283.846 422 389.942 482.793 389.942 557.784C389.942 558.72 389.924 559.654 389.892 560.585C397.883 559.705 406.135 559.244 414.574 559.244C486.345 559.244 544.526 592.583 544.526 633.707C544.526 637.828 543.94 641.871 542.816 645.81C554.618 641.536 568.603 639.061 583.596 639.061C609.306 639.061 632.052 646.334 645.909 657.485C654.987 652.695 667.108 649.768 680.422 649.768C690.727 649.768 700.318 651.523 708.336 654.536C712.45 640.774 733.371 630.3 758.562 630.3C780.616 630.3 799.396 638.328 806.493 649.562C829.199 630.861 866.981 618.62 909.753 618.62C917.911 618.62 925.888 619.065 933.613 619.916C933.559 618.839 933.531 617.758 933.531 616.673C933.531 555.927 1019.47 506.683 1125.49 506.683C1204.95 506.683 1273.13 534.348 1302.3 573.785C1317.08 570.676 1333.05 568.979 1349.72 568.979C1378.51 568.979 1405.24 574.048 1427.34 582.713C1447.54 553.569 1497.2 532.964 1555.26 532.964C1581.18 532.964 1605.42 537.07 1626.12 544.208C1661.09 502.98 1734.88 474.562 1820.26 474.562C1939.41 474.562 2036 529.907 2036 598.179C2036 631.212 2013.38 661.219 1976.54 683.395V1069.29H-7.55859V661.448H-0.0898438C-51.4168 636.541 -84 599.343 -84 557.784C-83.9999 482.793 22.0954 422 152.971 422Z" fill="#92D8FF"/>
<path opacity="0.25" d="M1799.03 603C1668.15 603 1562.06 659.284 1562.06 728.714C1562.06 729.58 1562.08 730.444 1562.11 731.307C1554.12 730.491 1545.87 730.065 1537.43 730.065C1465.66 730.065 1407.47 760.931 1407.47 799.006C1407.47 802.821 1408.06 806.563 1409.18 810.21C1397.38 806.253 1383.4 803.962 1368.4 803.962C1342.69 803.962 1319.95 810.696 1306.09 821.021C1297.01 816.585 1284.89 813.875 1271.58 813.875C1261.27 813.875 1251.68 815.499 1243.66 818.289C1239.55 805.548 1218.63 795.852 1193.44 795.852C1171.38 795.852 1152.6 803.284 1145.51 813.685C1122.8 796.371 1085.02 785.038 1042.25 785.038C1034.09 785.038 1026.11 785.45 1018.39 786.237C1018.44 785.24 1018.47 784.239 1018.47 783.235C1018.47 726.995 932.528 681.402 826.514 681.402C747.054 681.402 678.87 707.016 649.699 743.528C634.917 740.649 618.945 739.078 602.281 739.078C573.484 739.078 546.754 743.773 524.658 751.796C504.454 724.813 454.794 705.734 396.733 705.734C370.819 705.734 346.578 709.536 325.882 716.144C290.908 677.974 217.116 651.663 131.74 651.663C12.5922 651.663 -83.9968 702.904 -83.9971 766.112C-83.9971 796.694 -61.386 824.474 -24.5498 845.005V1202.28H1959.55V824.689H1952.09C2003.42 801.629 2036 767.19 2036 728.714C2036 659.284 1929.9 603 1799.03 603Z" fill="#89CDFF"/>
<path d="M-52 984.646C-52 984.646 568.869 904.829 979.134 905C1385.58 905.17 2036 984.646 2036 984.646V1281C2036 1281 1597.32 1179.61 979.134 1179.61C360.944 1179.61 -52 1281 -52 1281V984.646Z" fill="url(#paint1_linear_1_336)"/>
<path d="M-52 984.646C-52 984.646 568.869 904.829 979.134 905C1385.58 905.17 2036 984.646 2036 984.646V1281C2036 1281 1597.32 1179.61 979.134 1179.61C360.944 1179.61 -52 1281 -52 1281V984.646Z" fill="url(#paint2_linear_1_336)"/>
<g opacity="0.28">
<ellipse cx="1787.93" cy="1016.5" rx="32.8092" ry="13.4586" transform="rotate(-5.42457 1787.93 1016.5)" fill="#68BF82" style="mix-blend-mode:multiply"/>
</g>
<g opacity="0.28">
<ellipse cx="197.505" cy="1001.66" rx="44.8617" ry="19.5083" transform="rotate(-5.42457 197.505 1001.66)" fill="#68BF82" style="mix-blend-mode:multiply"/>
</g>
<g opacity="0.28">
<ellipse cx="46.8104" cy="1051.81" rx="29.0736" ry="12.6427" transform="rotate(-5.42457 46.8104 1051.81)" fill="#68BF82" style="mix-blend-mode:multiply"/>
</g>
<path d="M233.725 992.543C240.597 981.906 231.131 942.397 226.652 938.559C223.174 936.185 204.238 939.79 201.486 943.611C203.525 956.659 195.574 959.641 194.694 972.191C194.133 980.206 191.636 990.988 192.199 993.851C193.669 1001.33 229.225 999.508 233.725 992.543Z" fill="#FECDBA"/>
<path d="M259.572 950.007C258.742 970.747 237.659 977.084 213.23 979.109C188.801 981.135 170.03 976.794 168.436 957.562C167.16 942.164 184.253 926.277 208.683 924.252C233.112 922.227 257.977 930.775 259.572 950.007Z" fill="#E64B73"/>
<path d="M259.572 950.007C258.742 970.747 237.659 977.084 213.23 979.109C188.801 981.135 170.03 976.794 168.436 957.562C167.16 942.164 184.253 926.277 208.683 924.252C233.112 922.227 257.977 930.775 259.572 950.007Z" fill="url(#paint3_radial_1_336)"/>
<path d="M221.898 917.382C221.971 907.824 218.941 901.022 217.88 898.821L208.177 898.67C206.548 902.628 204.561 906.805 204.413 917.114C204.297 925.206 204.671 930.116 207.501 929.859C208.227 929.793 209.838 929.828 210.201 929.545C210.928 928.978 211.678 919.793 211.383 918.053C211.383 918.053 211.89 918.461 212.979 918.478C214.068 918.495 213.899 918.296 214.33 918.103C214.067 919.737 214.63 928.926 216.332 929.859C216.861 930.149 217.626 929.859 218.193 929.859C219.861 929.859 221.807 929.33 221.898 917.382Z" fill="url(#paint4_linear_1_336)"/>
<ellipse cx="5.44546" cy="6.66598" rx="5.44546" ry="6.66598" transform="matrix(-1 -2.42289e-09 -2.42289e-09 1 218.584 902.081)" fill="#F8DCBF"/>
<mask id="mask0_1_336" style="mask-type:alpha" maskUnits="userSpaceOnUse" x="202" y="898" width="22" height="17">
<path d="M219.402 899.12L206.536 898.929C204.361 905.079 206.382 907.202 202.842 913.415L213.145 913.442C217.117 913.453 223.775 914.111 223.775 914.111C219.931 908.338 221.194 904.922 219.402 899.12Z" fill="#BE1615"/>
</mask>
<g mask="url(#mask0_1_336)">
<path d="M223.447 913.47C219.602 907.697 221.095 904.545 219.304 898.743L213.04 902.382L206.536 898.929C204.361 905.079 206.382 907.202 202.842 913.415L213.144 913.442L223.447 913.47Z" fill="#C63359"/>
<path d="M213.125 902.467L201.063 895.213C196.725 900.398 197.849 902.985 192.198 907.838C192.198 907.838 196.449 912.081 200.201 913.233C203.953 914.386 213.601 915.77 213.601 915.77C213.155 908.864 213.125 905.899 213.125 902.467Z" fill="#1F0D0D"/>
</g>
<mask id="mask1_1_336" style="mask-type:alpha" maskUnits="userSpaceOnUse" x="189" y="908" width="47" height="29">
<path d="M201.808 908.88C205.53 908.357 210.589 910.683 213.031 913.532C215.415 910.625 218.627 908.514 223.673 908.88C230.884 909.403 235.827 919.347 235.827 931.443C235.827 931.443 221.08 936.095 211.984 936.095C202.889 936.095 189.247 931.443 189.247 931.443C187.677 920.976 193.81 910.004 201.808 908.88Z" fill="#BE1615"/>
</mask>
<g mask="url(#mask1_1_336)">
<path d="M201.808 908.88C205.53 908.357 210.589 910.683 213.031 913.532C215.415 910.625 218.627 908.514 223.673 908.88C230.884 909.403 235.827 919.347 235.827 931.443C235.827 931.443 221.08 936.095 211.984 936.095C202.889 936.095 189.247 931.443 189.247 931.443C187.677 920.976 193.81 910.004 201.808 908.88Z" fill="white"/>
<path d="M212.901 913.342C212.901 913.342 217.98 919.23 220.054 923.635C222.258 928.318 224.415 936.69 224.415 936.69L200.34 936.69C200.34 936.69 203.576 928.634 205.748 923.984C207.847 919.492 212.901 913.342 212.901 913.342Z" fill="#FDBD05"/>
<path d="M213.134 916.51C213.134 916.51 216.453 921.672 218.135 925.612C219.816 929.553 221.745 936.69 221.745 936.69L204.522 936.69C204.522 936.69 206.078 929.752 207.9 925.612C209.551 921.859 213.134 916.51 213.134 916.51Z" fill="#1F0D0D"/>
<path d="M213.192 922.014C213.192 922.014 215.112 924.375 216.332 927.241C217.551 930.107 219.436 936.691 219.436 936.691L206.947 936.691C206.947 936.691 208.186 930.974 209.644 927.823C210.831 925.258 213.192 922.014 213.192 922.014Z" fill="#FDBD05"/>
<path d="M213.192 925.928C213.192 925.928 214.8 928.604 215.576 930.439C216.605 932.874 217.481 936.935 217.481 936.935L208.933 936.935C208.933 936.935 209.784 932.873 210.807 930.439C211.58 928.602 213.192 925.928 213.192 925.928Z" fill="#1F0D0D"/>
<path d="M201.27 940.79C201.503 928.648 210.168 916.501 214.297 912.004L208.888 905.491L192.78 907.643L184.581 932.59C190.047 940.383 201.038 952.932 201.27 940.79Z" fill="white"/>
<path d="M201.038 932.881C202.434 926.717 207.26 916.599 214.646 910.551L207.26 903.107L191.152 905.259L184.988 925.787C186.616 929.915 196.618 932.881 201.038 932.881Z" fill="#4F3030"/>
<path d="M197.126 932.263C197.634 926.169 202.17 915.603 210.077 910.255L205.774 903.148L189.536 903.819L181.522 923.698C182.767 927.958 192.725 931.859 197.126 932.263Z" fill="#230505"/>
<path d="M224.822 932.416C223.427 926.252 218.6 916.133 211.215 910.085L218.6 902.642L234.708 904.793L240.872 925.321C239.244 929.45 229.242 932.416 224.822 932.416Z" fill="#C63359"/>
<path d="M236.487 929.385C240.438 927.866 233.893 904.31 223.437 904.149L214.056 909.916C217.789 910.467 226.584 916.942 228.615 931.925C232.001 931.247 234.286 930.232 236.487 929.385Z" fill="#E53E46" style="mix-blend-mode:multiply"/>
</g>
<path d="M240.367 893.098L225.385 919.531" stroke="#FFBE00" stroke-width="1.07015" stroke-linecap="round"/>
<path fill-rule="evenodd" clip-rule="evenodd" d="M242.857 888.894C244.168 888.51 245.443 888.806 245.978 889.721C246.653 890.877 246.054 892.48 244.438 893.423C243.95 893.708 243.425 893.899 242.911 893.997L242.946 894.018L239.41 894.807L238.341 891.315L238.347 891.319C238.194 890.801 238.104 890.232 238.098 889.65C238.082 887.779 239.244 886.672 240.573 886.66C241.619 886.651 242.514 887.584 242.857 888.894Z" fill="#C63359"/>
<path d="M196.62 907.886C198.952 904.419 205.026 897.666 208.13 898.932C207.972 900.364 205.361 903.911 203.291 907.498C201.241 911.051 200.255 911.406 199.422 912.15C198.712 912.864 197.271 913.121 196.531 912.642C194.462 911.3 193.834 912.029 196.62 907.886Z" fill="url(#paint5_linear_1_336)"/>
<path d="M201.219 911.572L195.388 907.818C198.188 903.531 203.946 899.653 206.475 898.25L209.342 900.083L201.219 911.572Z" fill="#1F0D0D"/>
<path d="M194.996 907.258C194.583 908.107 195.884 909.591 197.901 910.573C199.919 911.555 201.889 911.663 202.302 910.815C202.715 909.967 200.582 909.921 198.564 908.939C196.546 907.957 195.409 906.41 194.996 907.258Z" fill="#C63359"/>
<path d="M229.479 907.614C226.715 904.481 219.81 898.579 216.899 900.239C217.242 901.639 220.294 904.814 222.815 908.1C225.312 911.355 226.335 911.578 227.259 912.207C228.055 912.822 229.518 912.889 230.189 912.317C232.065 910.717 232.782 911.357 229.479 907.614Z" fill="url(#paint6_linear_1_336)"/>
<path d="M225.118 911.753L230.842 907.839C227.924 903.631 222.06 899.915 219.493 898.583L216.678 900.495L225.118 911.753Z" fill="#C63359"/>
<path d="M230.896 906.818C231.465 907.571 230.474 909.278 228.683 910.63C226.893 911.982 224.98 912.468 224.411 911.715C223.843 910.962 225.928 910.506 227.719 909.154C229.509 907.802 230.327 906.065 230.896 906.818Z" fill="#1F0D0D"/>
<path fill-rule="evenodd" clip-rule="evenodd" d="M234.883 897.224C230.056 887.862 196.793 888.792 191.443 897.224C200.219 896.328 206.612 897.479 213.125 902.975C219.289 897.13 226.17 896.694 234.883 897.224ZM203.481 895.509C206.88 891.069 219.372 890.689 222.09 895.865C217.444 897.156 214.262 899.426 213.125 902.129C211.413 899.142 208.932 897.807 203.481 895.509Z" fill="white"/>
<path d="M228.17 887.394C228.17 893.971 224.922 899.303 213.737 899.303C201.109 899.303 199.305 893.971 199.305 887.394C199.305 880.817 205.767 875.485 213.737 875.485C221.708 875.485 228.17 880.817 228.17 887.394Z" fill="url(#paint7_linear_1_336)"/>
<ellipse cx="214.035" cy="890.07" rx="4.71674" ry="2.57796" transform="rotate(-1.05377 214.035 890.07)" fill="#F3CCA5"/>
<path d="M214.054 889.866C213.363 889.861 212.778 889.402 213.125 888.998C213.284 888.881 213.826 888.735 214.048 888.724C214.258 888.713 214.738 888.814 214.935 888.965C215.519 889.413 214.744 889.871 214.054 889.866Z" fill="#4F2F22" stroke="#4F2F22" stroke-width="0.498453" stroke-linecap="round"/>
<path d="M214.05 889.81L214.05 890.849M214.05 890.849C214.288 891.023 214.89 891.369 215.54 891.239M214.05 890.849C213.898 890.979 213.266 891.434 212.681 891.239" stroke="#4F2F22" stroke-width="0.498453" stroke-linecap="round"/>
<path d="M207.832 887.735C207.931 887.748 208.026 887.815 208.096 887.939C208.165 888.063 208.201 888.234 208.175 888.422C208.15 888.611 208.07 888.767 207.971 888.868C207.871 888.969 207.761 889.008 207.663 888.995C207.564 888.982 207.468 888.915 207.399 888.791C207.329 888.667 207.293 888.496 207.319 888.307C207.344 888.119 207.424 887.963 207.524 887.862C207.623 887.761 207.734 887.722 207.832 887.735Z" fill="#4F2F22" stroke="#4F2F22" stroke-width="0.366659"/>
<path d="M219.747 887.798C219.649 887.811 219.554 887.878 219.484 888.002C219.415 888.126 219.379 888.297 219.404 888.486C219.43 888.674 219.51 888.83 219.609 888.931C219.709 889.032 219.818 889.071 219.917 889.058C220.016 889.045 220.112 888.978 220.181 888.854C220.251 888.73 220.286 888.559 220.261 888.37C220.236 888.182 220.156 888.026 220.056 887.925C219.957 887.824 219.846 887.785 219.747 887.798Z" fill="#4F2F22" stroke="#4F2F22" stroke-width="0.366659"/>
<path d="M213.774 873.915C221.675 873.915 228.08 877.846 228.08 882.696C228.079 887.545 221.674 879.032 213.774 879.032C205.873 879.032 199.469 887.545 199.468 882.696C199.468 877.846 205.873 873.915 213.774 873.915Z" fill="black"/>
<path d="M225.795 875.996C228.395 877.973 226.116 880.99 226.116 880.99L220.531 877.154C220.531 877.154 223.195 874.02 225.795 875.996Z" fill="url(#paint8_linear_1_336)"/>
<path d="M225.01 877.139C226.722 878.519 225.138 880.514 225.138 880.514L221.452 877.825C221.452 877.825 223.298 875.758 225.01 877.139Z" fill="#F3CCA5"/>
<path d="M201.587 876.163C199.105 878.286 201.555 881.167 201.555 881.167L206.909 877.015C206.909 877.015 204.068 874.04 201.587 876.163Z" fill="url(#paint9_linear_1_336)"/>
<path d="M202.436 877.258C200.806 878.735 202.504 880.635 202.504 880.635L206.028 877.737C206.028 877.737 204.066 875.781 202.436 877.258Z" fill="#F3CCA5"/>
<path d="M204.238 877.676C206.294 876.691 208.451 876.914 209.057 878.176C209.662 879.438 206.933 878.023 204.877 879.009C202.821 879.995 202.216 883.009 201.611 881.747C201.006 880.485 202.182 878.662 204.238 877.676Z" fill="black"/>
<path d="M223.315 877.677C221.259 876.691 219.101 876.914 218.496 878.176C217.891 879.439 220.62 878.022 222.676 879.008C224.732 879.994 225.337 883.009 225.942 881.747C226.547 880.485 225.371 878.663 223.315 877.677Z" fill="black"/>
<ellipse cx="199.992" cy="884.789" rx="2.61686" ry="2.96578" fill="black"/>
<ellipse cx="226.975" cy="884.789" rx="2.61686" ry="2.96578" fill="black"/>
<ellipse cx="228.719" cy="887.057" rx="1.45381" ry="1.62827" fill="black"/>
<ellipse cx="198.829" cy="887.057" rx="1.45381" ry="1.62827" fill="black"/>
<path d="M208.457 886.478C207.788 885.982 207.15 885.931 206.616 886.706" stroke="#4F2F22" stroke-width="0.507883" stroke-linecap="round"/>
<path d="M219.092 886.564C219.745 886.046 220.381 885.972 220.94 886.728" stroke="#4F2F22" stroke-width="0.507883" stroke-linecap="round"/>
<mask id="mask2_1_336" style="mask-type:alpha" maskUnits="userSpaceOnUse" x="205" y="901" width="16" height="13">
<path fill-rule="evenodd" clip-rule="evenodd" d="M213.089 902.873C211.47 901.326 209.311 900.722 207.72 901.53C205.71 902.551 205.209 905.175 206.798 907.717C207.277 908.483 207.892 909.154 208.572 909.69L208.506 909.69L213.086 913.538L217.716 909.69L217.711 909.69C218.388 909.115 219.012 908.42 219.524 907.644C221.176 905.143 220.405 902.74 218.435 901.677C216.885 900.841 214.738 901.385 213.089 902.873Z" fill="#BE1615"/>
</mask>
<g mask="url(#mask2_1_336)">
<path fill-rule="evenodd" clip-rule="evenodd" d="M213.089 902.872C211.47 901.326 209.311 900.723 207.72 901.531C205.71 902.552 205.209 905.175 206.798 907.716C207.277 908.483 207.893 909.154 208.573 909.69L208.506 909.691L213.087 913.539L217.717 909.69L217.711 909.69C218.388 909.115 219.012 908.419 219.524 907.644C221.176 905.142 220.405 902.739 218.435 901.677C216.885 900.84 214.739 901.384 213.089 902.872Z" fill="#C63359"/>
<mask id="mask3_1_336" style="mask-type:alpha" maskUnits="userSpaceOnUse" x="212" y="899" width="14" height="18">
<path d="M212.972 916.434L212.972 901.803C215.91 897.689 222.358 900.089 225.215 901.803L212.972 916.434Z" fill="#1F0D0D"/>
</mask>
<g mask="url(#mask3_1_336)">
<path d="M212.972 916.434L212.972 901.803C215.91 897.689 222.358 900.089 225.215 901.803L212.972 916.434Z" fill="#1F0D0D"/>
</g>
</g>
<path d="M217.321 876.589C214.762 875.194 211.641 876.008 210.401 876.589L209.121 867.867L211.971 871.239L213.715 866.238L215.46 871.239L218.6 867.867L217.321 876.589Z" fill="#FFBE00"/>
<path d="M86.2058 1047.63C90.0226 1041.72 84.7652 1019.78 82.2773 1017.65C80.3457 1016.33 69.8279 1018.33 68.2994 1020.45C69.4318 1027.7 65.0153 1029.36 64.5269 1036.33C64.215 1040.78 62.8283 1046.77 63.141 1048.36C63.9576 1052.51 83.7066 1051.5 86.2058 1047.63Z" fill="#FECDBA"/>
<path d="M100.561 1024.01C100.101 1035.53 88.3906 1039.05 74.8217 1040.17C61.2529 1041.3 50.8272 1038.88 49.9417 1028.2C49.2327 1019.65 58.7271 1010.83 72.2959 1009.7C85.8648 1008.58 99.6759 1013.32 100.561 1024.01Z" fill="#E64B73"/>
<path d="M100.561 1024.01C100.101 1035.53 88.3906 1039.05 74.8217 1040.17C61.2529 1041.3 50.8272 1038.88 49.9417 1028.2C49.2327 1019.65 58.7271 1010.83 72.2959 1009.7C85.8648 1008.58 99.6759 1013.32 100.561 1024.01Z" fill="url(#paint10_radial_1_336)"/>
<g opacity="0.85">
<path d="M54.6081 1006.68L47.4912 995.355L55.4877 986.005L73.1514 994.451L73.2054 1007.77L54.6081 1006.68Z" fill="#18338D"/>
<mask id="mask4_1_336" style="mask-type:alpha" maskUnits="userSpaceOnUse" x="30" y="952" width="49" height="45">
<path d="M48.1245 955.112C38.8424 959.422 26.9184 972.873 31.8504 976.112C36.7824 979.352 48.4617 996.736 48.4617 996.736C48.4617 996.736 57.2319 987.326 62.1 990.706C66.968 994.087 73.0821 996.039 73.0821 996.039C73.0821 996.039 75.4728 966.817 78.2629 959.579C81.053 952.34 59.0014 950.062 48.1245 955.112Z" fill="#6EC281"/>
</mask>
<g mask="url(#mask4_1_336)">
<path d="M48.1245 955.112C38.8424 959.422 26.9184 972.873 31.8504 976.112C36.7824 979.352 48.4617 996.736 48.4617 996.736C48.4617 996.736 57.2319 987.326 62.1 990.706C66.968 994.087 73.0821 996.039 73.0821 996.039C73.0821 996.039 75.4728 966.817 78.2629 959.579C81.053 952.34 59.0014 950.062 48.1245 955.112Z" fill="url(#paint11_linear_1_336)"/>
<path opacity="0.92" d="M104.902 957.796C114.116 965.271 123.941 983.738 117.639 985.96C111.338 988.181 93.9467 1004.32 93.9467 1004.32C93.9467 1004.32 81.0668 985.413 80.3318 993.677C79.5969 1001.94 64.9448 1007.3 65.4269 998.106C65.9089 988.912 77.6659 956.114 57.5651 951.264C37.4642 946.415 94.1055 949.037 104.902 957.796Z" fill="#244EDB"/>
</g>
<path d="M81.0154 1001.95L74.1576 1006.63L64.3677 1013.2C64.3677 1013.2 66.6921 1012.56 68.1993 1012.26C71.2471 1011.66 73.0665 1012.08 76.0977 1011.38C78.1618 1010.9 81.2996 1009.72 81.2996 1009.72C81.2996 1009.72 83.1874 1009.13 84.0898 1008.08C84.745 1007.32 85.4392 1005.67 85.4392 1005.67L84.7336 1002.87L81.0154 1001.95Z" fill="#18338D"/>
<path d="M45.2254 1003.7C46.2797 1003.57 56.2794 1006.85 56.2794 1006.85L50.766 1010.78L78.7537 1001.22C78.7537 1001.22 80.027 1000.98 80.6895 1000.92C81.7583 1000.82 82.5792 1000.65 83.714 1001.26C84.2272 1001.54 84.9675 1002.2 84.9675 1002.2C84.9675 1002.2 85.581 1003.06 85.6545 1003.45C85.7281 1003.83 85.8046 1004.56 85.6327 1005.26C85.5156 1005.74 84.8055 1007.37 85.1092 1006.3C85.413 1005.24 85.3042 1004.91 84.9072 1004.16C84.5208 1003.42 84.0694 1003.32 83.4685 1003.02C82.3118 1002.46 81.5896 1002.87 80.431 1003.13C78.8499 1003.48 78.0586 1004.14 76.6239 1005.05C75.4047 1005.82 74.7858 1006.41 73.611 1007.3C72.1412 1008.4 69.8546 1010.14 69.8546 1010.14C69.8546 1010.14 66.871 1012.61 64.8152 1013.81C63.3079 1014.68 62.4418 1015.13 60.85 1015.72C58.979 1016.41 57.8905 1016.68 55.936 1016.91C54.0343 1017.13 52.9415 1017.29 51.0134 1016.91C49.4751 1016.61 48.6094 1016.27 47.119 1015.53C45.9938 1014.98 45.3246 1014.73 44.2999 1013.82C43.6204 1013.22 43.1536 1012.95 42.6718 1012.04C42.2352 1011.21 42.1045 1010.61 41.9608 1009.63C41.8109 1008.61 41.7654 1007.96 41.9666 1007C42.1794 1005.98 42.4666 1005.46 43.0366 1004.8C43.7293 1004 44.3029 1003.81 45.2254 1003.7Z" fill="#2548BC"/>
<mask id="mask5_1_336" style="mask-type:alpha" maskUnits="userSpaceOnUse" x="42" y="1001" width="38" height="15">
<path d="M45.2114 1004.96C47.5116 1004.86 51.2689 1006.48 51.2689 1006.48C52.1718 1004.37 71.9368 1002.03 75.054 1001.52C78.1713 1001.01 79.4078 1001.07 79.4078 1001.07C79.4078 1001.07 77.7626 1001.96 76.2688 1002.77C74.7522 1003.6 74.0134 1004.37 72.581 1005.43C70.8734 1006.69 68.2371 1008.73 68.2371 1008.73C68.2371 1008.73 65.4045 1011.03 62.561 1011.88C59.7175 1012.73 57.713 1014.54 55.9276 1014.82C54.1422 1015.09 53.4817 1015.14 50.747 1014.66C49.0098 1014.36 47.8473 1014.12 46.0141 1012.8C44.7325 1011.87 44.2002 1011.47 43.25 1009.73C42.1986 1007.8 42.9112 1005.07 45.2114 1004.96Z" fill="#6EC281"/>
</mask>
<g mask="url(#mask5_1_336)">
<path d="M45.2114 1004.96C47.5116 1004.86 51.2689 1006.48 51.2689 1006.48C52.1718 1004.37 71.9368 1002.03 75.054 1001.52C78.1713 1001.01 79.4078 1001.07 79.4078 1001.07C79.4078 1001.07 77.7626 1001.96 76.2688 1002.77C74.7522 1003.6 74.0134 1004.37 72.581 1005.43C70.8734 1006.69 68.2371 1008.73 68.2371 1008.73C68.2371 1008.73 65.4045 1011.03 62.561 1011.88C59.7175 1012.73 57.713 1014.54 55.9276 1014.82C54.1422 1015.09 53.4817 1015.14 50.747 1014.66C49.0098 1014.36 47.8473 1014.12 46.0141 1012.8C44.7325 1011.87 44.2002 1011.47 43.25 1009.73C42.1986 1007.8 42.9112 1005.07 45.2114 1004.96Z" fill="#3A80EF"/>
<path d="M55.5432 999.693C57.8434 999.591 61.6007 1001.21 61.6007 1001.21C62.5036 999.096 82.2686 996.762 85.3858 996.25C88.503 995.739 89.7396 995.796 89.7396 995.796C89.7396 995.796 88.0944 996.685 86.6005 997.501C85.0839 998.33 84.3452 999.103 82.9128 1000.16C81.2052 1001.42 78.5689 1003.46 78.5689 1003.46C78.5689 1003.46 75.7362 1005.76 72.8928 1006.61C70.0493 1007.46 68.0448 1009.27 66.2594 1009.55C64.474 1009.82 63.8135 1009.87 61.0788 1009.39C59.3416 1009.09 58.1791 1008.85 56.3459 1007.53C55.0643 1006.6 54.532 1006.2 53.5817 1004.46C52.5304 1002.53 53.243 999.796 55.5432 999.693Z" fill="#2551DB"/>
</g>
</g>
<path d="M1828.64 1013.24C1836.47 1002.01 1827.74 958.932 1823.05 954.611C1819.38 951.912 1798.77 955.088 1795.65 959.115C1797.35 973.299 1788.64 976.219 1787.21 989.754C1786.3 998.397 1783.19 1009.96 1783.69 1013.08C1785 1021.22 1823.51 1020.6 1828.64 1013.24Z" fill="#FECDBA"/>
<path d="M1858.35 968.277C1856.66 990.668 1833.63 996.716 1807.14 997.975C1780.65 999.234 1760.53 993.826 1759.53 972.973C1758.74 956.278 1777.83 939.754 1804.31 938.495C1830.8 937.236 1857.36 947.425 1858.35 968.277Z" fill="#E64B73"/>
<path d="M1858.35 968.277C1856.66 990.668 1833.63 996.716 1807.14 997.975C1780.65 999.234 1760.53 993.826 1759.53 972.973C1758.74 956.278 1777.83 939.754 1804.31 938.495C1830.8 937.236 1857.36 947.425 1858.35 968.277Z" fill="url(#paint12_radial_1_336)"/>
<path d="M1789.28 902.409C1794.68 905.182 1807.15 909.506 1810.21 905.711C1809 903.998 1803.19 901.321 1798.04 898.211C1792.93 895.131 1791.43 895.372 1789.85 895.012C1788.44 894.602 1788.78 896.021 1788.17 897.153C1786.49 900.315 1782.83 899.096 1789.28 902.409Z" fill="url(#paint13_linear_1_336)"/>
<path d="M1789.16 894.499C1787.12 893.886 1783.57 895.519 1784.06 901.233" stroke="#ECBE4A" stroke-width="0.897075"/>
<path d="M1785.13 899.652C1785.72 900.724 1787.76 901.662 1787.76 901.662C1787.76 901.662 1788.96 899.925 1789.51 898.694C1790.11 897.366 1790.63 895.123 1790.63 895.123C1789.48 894.79 1790.09 894.99 1788 894.661C1785.9 894.331 1787.31 896.186 1786.64 897.358C1786.09 898.309 1784.65 898.784 1785.13 899.652Z" fill="url(#paint14_linear_1_336)"/>
<path d="M1787.93 901.641C1789.36 899.464 1792.01 895.519 1789.16 894.498" stroke="#ECBE4A" stroke-width="0.897075"/>
<path d="M1799.87 929.225C1799.76 915.325 1803.89 905.432 1805.43 902.232L1819.52 902.013C1821.89 907.768 1824.78 913.843 1824.99 928.834C1825.16 940.603 1824.62 947.742 1820.51 947.369C1819.45 947.274 1817.11 947.324 1816.58 946.913C1815.53 946.089 1814.44 932.73 1814.87 930.201C1814.87 930.201 1814.13 930.794 1812.55 930.819C1810.97 930.843 1810.87 930.554 1810.24 930.273C1810.62 932.649 1809.81 946.012 1807.33 947.369C1806.57 947.791 1806.07 947.369 1805.25 947.369C1802.83 947.369 1800 946.6 1799.87 929.225Z" fill="url(#paint15_linear_1_336)"/>
<path d="M1831.78 918.476C1829.88 912.705 1824.04 900.859 1819.2 901.41C1818.86 903.478 1821.12 909.471 1822.6 915.307C1824.07 921.089 1825.31 921.973 1826.18 923.342C1826.89 924.622 1827.65 923.376 1828.87 922.996C1832.3 921.932 1834.04 925.372 1831.78 918.476Z" fill="url(#paint16_linear_1_336)"/>
<path d="M1832.79 923.363C1833.13 922.186 1832.33 920.08 1832.33 920.08C1832.33 920.08 1830.26 920.474 1829 920.96C1827.65 921.485 1825.7 922.712 1825.7 922.712C1826.29 923.761 1825.99 923.188 1827.25 924.894C1828.51 926.6 1828.81 924.294 1830.11 923.932C1831.16 923.638 1832.52 924.315 1832.79 923.363Z" fill="url(#paint17_linear_1_336)"/>
<ellipse cx="1812.32" cy="916.667" rx="7.91066" ry="9.69403" fill="#F8DCBF"/>
<path d="M1802.35 910.664H1822.71C1825.62 921.489 1825.5 927.679 1824.76 938.755C1824.76 938.755 1822.07 937.065 1820.14 937.042C1818.16 937.019 1815.18 939.269 1815.18 939.269C1814.54 935.868 1814.37 933.83 1814.67 930.533C1814.67 930.533 1813.48 931.049 1812.44 931.047C1811.55 931.046 1810.39 930.362 1810.39 930.362C1810.74 933.617 1810.25 936.993 1809.71 940.297C1809.71 940.297 1806.99 936.514 1804.74 936.528C1802.91 936.54 1800.3 938.07 1800.3 938.07C1799.26 927.378 1799.49 921.379 1802.35 910.664Z" fill="#777CB2"/>
<path d="M1804.2 902.749L1820.66 902.522C1823.42 911.473 1824.17 916.393 1825.24 925.132C1825.24 925.132 1816.76 917.102 1811.68 917.102C1808.11 917.102 1799.78 924.71 1799.78 924.71C1800.64 916.488 1801.89 911.181 1804.2 902.749Z" fill="#FFF386"/>
<path d="M1799.61 926.251C1799.61 920.256 1801.67 912.313 1802.86 907.067C1799.31 906.618 1797.91 906.141 1795.67 905.183C1798.23 902.451 1797.81 900.673 1796.87 897.475L1803.1 901.955C1806.33 901.444 1808.22 908.585 1808.64 912.882C1809.06 917.34 1806.01 924.119 1806.01 924.119C1804.65 926.466 1803.2 926.251 1799.61 926.251Z" fill="#B92D2C"/>
<path d="M1831.84 886.772C1831.84 895.493 1828.32 900.625 1817.13 903.068C1814.07 903.735 1810.89 903.779 1807.81 903.194C1795.95 900.933 1793.5 895.552 1793.5 886.772C1793.5 876.941 1802.08 868.972 1812.67 868.972C1823.26 868.972 1831.84 876.941 1831.84 886.772Z" fill="url(#paint18_linear_1_336)"/>
<path d="M1811.11 872.082C1811.08 872.555 1810.75 872.998 1809.99 873.186C1809.31 873.354 1808.61 872.463 1808.64 871.99C1808.66 871.517 1809.41 871.119 1810.03 871.157C1810.65 871.195 1811.13 871.609 1811.11 872.082Z" fill="#F8DCBF"/>
<path d="M1813.47 871.779C1813.45 872.252 1813.72 872.732 1814.45 873.011C1815.11 873.262 1815.91 872.462 1815.94 871.989C1815.96 871.516 1815.26 871.029 1814.64 870.991C1814.02 870.953 1813.5 871.306 1813.47 871.779Z" fill="#F8DCBF"/>
<path d="M1813.71 874.086C1813.73 874.559 1813.46 875.038 1812.73 875.318C1812.07 875.569 1811.24 874.867 1811.22 874.394C1811.19 873.921 1811.92 873.336 1812.54 873.298C1813.16 873.26 1813.68 873.613 1813.71 874.086Z" fill="#F8DCBF"/>
<path d="M1829.48 848.118C1837.67 850.703 1827.48 865.319 1824.43 872.893C1822.35 873.958 1818.14 873.179 1819.87 869.339C1822.05 864.539 1815.72 859.861 1817.41 856.614C1819.11 853.367 1823.51 864.981 1823.92 860.396C1824.98 848.733 1826.46 847.167 1829.48 848.118Z" fill="url(#paint19_linear_1_336)"/>
<path d="M1795.37 847.603C1787.11 849.99 1797.07 865.241 1799.9 872.886C1801.95 873.999 1806.19 873.323 1804.56 869.442C1802.52 864.591 1808.81 859.672 1807.2 856.386C1805.59 853.099 1800.88 864.603 1800.59 860.01C1799.86 848.326 1798.41 846.724 1795.37 847.603Z" fill="url(#paint20_linear_1_336)"/>
<path d="M1793.97 868.836C1791.1 875.408 1794.44 875.603 1795.34 877.691C1796.53 880.433 1803.63 874.251 1801.75 873.282C1799.87 872.314 1801.22 869.145 1793.97 868.836Z" fill="url(#paint21_linear_1_336)"/>
<path d="M1795.21 871.162C1795.36 870.542 1796.19 870.11 1797.96 871.162C1798.18 871.291 1800.09 872.287 1800.24 873.295C1800.42 874.555 1797.82 876.203 1796.79 876.106C1795.77 876.009 1796.51 875.331 1795.4 874.458C1794.28 873.586 1795.03 871.938 1795.21 871.162Z" fill="#F8DCBF"/>
<path d="M1831.46 868.988C1834.06 875.677 1830.72 875.73 1829.74 877.778C1828.44 880.467 1821.59 873.988 1823.51 873.1C1825.43 872.213 1824.2 868.988 1831.46 868.988Z" fill="url(#paint22_linear_1_336)"/>
<path d="M1829.94 870.937C1829.8 870.312 1828.44 870.329 1827.09 871.458C1826.63 871.844 1825.1 872.208 1824.96 873.223C1824.78 874.492 1827.41 876.01 1828.4 875.913C1829.4 875.815 1828.68 875.132 1829.76 874.254C1830.85 873.376 1830.12 871.717 1829.94 870.937Z" fill="#F8DCBF"/>
<ellipse cx="7.74535" cy="5.02303" rx="7.74535" ry="5.02303" transform="matrix(0.999816 -0.0191559 0.0176561 0.999844 1801.73 886.281)" fill="#F8DCBF"/>
<path d="M1800.6 885.869C1800.75 885.882 1800.91 885.999 1801.03 886.231C1801.14 886.46 1801.21 886.779 1801.18 887.131C1801.15 887.483 1801.04 887.787 1800.89 887.993C1800.73 888.201 1800.56 888.289 1800.4 888.276C1800.25 888.262 1800.09 888.146 1799.97 887.914C1799.86 887.685 1799.79 887.366 1799.82 887.014C1799.85 886.661 1799.96 886.358 1800.11 886.152C1800.27 885.943 1800.44 885.856 1800.6 885.869Z" fill="#4F2F22" stroke="#4F2F22" stroke-width="0.333508"/>
<path d="M1818.11 885.483C1817.95 885.497 1817.79 885.618 1817.66 885.856C1817.54 886.092 1817.48 886.42 1817.51 886.782C1817.54 887.145 1817.65 887.457 1817.81 887.669C1817.97 887.883 1818.15 887.974 1818.31 887.96C1818.47 887.946 1818.63 887.826 1818.75 887.588C1818.87 887.352 1818.94 887.024 1818.91 886.661C1818.88 886.299 1818.76 885.987 1818.61 885.775C1818.45 885.56 1818.27 885.47 1818.11 885.483Z" fill="#4F2F22" stroke="#4F2F22" stroke-width="0.333508"/>
<path d="M1809.59 890.251C1808.2 890.251 1807.09 889.209 1807.78 888.603C1808.1 888.426 1809.14 889.204 1809.59 889.184C1810.01 889.166 1811.12 888.38 1811.51 888.603C1812.34 889.378 1810.97 890.251 1809.59 890.251Z" fill="#4F2F22" stroke="#4F2F22" stroke-width="0.789682" stroke-linecap="round"/>
<path d="M1809.64 890.154V891.705M1809.64 891.705C1809.98 891.964 1810.83 892.442 1811.5 892.287C1812.17 892.132 1812.47 891.835 1812.53 891.705M1809.64 891.705C1809.43 891.899 1808.86 892.287 1807.97 892.287C1807.07 892.287 1806.76 891.899 1806.67 891.705" stroke="#4F2F22" stroke-width="0.789682" stroke-linecap="round"/>
<path d="M1828.53 910.644C1828.53 910.644 1824.75 902.61 1821.51 902.1C1818.28 901.589 1816.39 908.73 1815.98 913.027C1815.55 917.485 1818.6 924.264 1818.6 924.264C1819.96 926.611 1821.68 926.422 1825.28 926.422C1825.28 920.427 1824.42 917.109 1823.22 911.863C1824.98 909.896 1828.53 910.644 1828.53 910.644Z" fill="#B92D2C"/>
<path d="M1826.82 899.531C1822.41 901.525 1817.94 901.053 1810.74 903.984C1810.74 903.984 1816.57 903.75 1821.08 903.114C1822.85 902.863 1826.82 899.531 1826.82 899.531Z" fill="#E9DBA9"/>
<path d="M1796.7 899.531C1801.11 901.526 1805.58 901.053 1812.78 903.984C1812.78 903.984 1806.94 903.75 1802.44 903.114C1800.67 902.863 1796.7 899.531 1796.7 899.531Z" fill="#E9DBA9"/>
<path d="M1809.22 901.984C1808.7 902.035 1808.28 902.453 1808.28 902.963C1808.28 903.371 1808.55 903.721 1808.93 903.87C1808.55 904.019 1808.28 904.369 1808.28 904.777C1808.28 905.286 1808.7 905.705 1809.22 905.756C1809.26 905.759 1809.3 905.76 1809.33 905.76C1810.21 905.76 1810.78 905.061 1811.32 904.488C1811.45 904.555 1811.6 904.597 1811.77 904.597C1811.94 904.597 1812.09 904.555 1812.22 904.488C1812.76 905.061 1813.32 905.76 1814.21 905.76C1814.24 905.76 1814.28 905.759 1814.31 905.756C1814.84 905.705 1815.26 905.287 1815.26 904.777C1815.26 904.369 1814.99 904.019 1814.61 903.87C1814.99 903.721 1815.26 903.371 1815.26 902.963C1815.26 902.453 1814.84 902.035 1814.31 901.984C1814.28 901.981 1814.24 901.979 1814.21 901.979C1813.32 901.979 1812.76 902.677 1812.22 903.25C1812.09 903.183 1811.94 903.142 1811.77 903.142C1811.6 903.142 1811.45 903.183 1811.32 903.25C1810.78 902.677 1810.21 901.979 1809.33 901.979C1809.3 901.979 1809.26 901.981 1809.22 901.984Z" fill="#B92D2C"/>
<path d="M1812.1 909.107C1811.89 909.107 1811.72 909.28 1811.72 909.493C1811.72 909.706 1811.89 909.879 1812.1 909.879C1812.32 909.879 1812.49 909.706 1812.49 909.493C1812.49 909.28 1812.32 909.108 1812.1 909.107Z" fill="#C1B96F" stroke="#948827" stroke-width="0.23579"/>
<path d="M1812.1 911.965C1811.89 911.965 1811.72 912.137 1811.72 912.351C1811.72 912.564 1811.89 912.736 1812.1 912.736C1812.32 912.736 1812.49 912.564 1812.49 912.351C1812.49 912.137 1812.32 911.965 1812.1 911.965Z" fill="#C1B96F" stroke="#948827" stroke-width="0.23579"/>
<rect width="6.91271" height="0.971016" rx="0.485508" transform="matrix(-1 -4.82331e-06 -0.0428643 0.999081 1789.76 900.929)" fill="#C98032"/>
<rect width="5.76059" height="4.71636" transform="matrix(-1 -1.90351e-10 -0.0428692 0.999081 1788.97 904.532)" fill="#ECBE4A"/>
<rect width="5.76059" height="3.60663" transform="matrix(-1 -1.90351e-10 -0.0428692 0.999081 1789.08 901.899)" fill="#ECBE4A"/>
<rect width="6.55801" height="6.25332" rx="1.02665" transform="matrix(-1 -1.90351e-10 -0.0428692 0.999081 1789.27 906.053)" fill="#C98032"/>
<path d="M1790.34 903.964C1790.84 903.436 1790.5 902.592 1789.79 902.592L1782.53 902.592C1781.83 902.592 1781.42 903.407 1781.84 903.941L1782.86 905.21C1783.01 905.395 1783.23 905.502 1783.48 905.502L1788.52 905.502C1788.75 905.502 1788.97 905.404 1789.14 905.233L1790.34 903.964Z" fill="#ECBE4A"/>
<ellipse cx="15.5536" cy="15.5698" rx="15.5536" ry="15.5698" transform="matrix(-1 -2.96053e-10 -0.0428692 0.999081 1801.03 908.682)" fill="#ECBE4A"/>
<ellipse cx="16.8337" cy="16.8519" rx="16.8337" ry="16.8519" transform="matrix(-1 -1.90032e-10 -0.0429147 0.999079 1803.12 907.227)" fill="#FFCF55"/>
<ellipse cx="14.6641" cy="14.6794" rx="14.6641" ry="14.6794" transform="matrix(-1 -1.90234e-10 -0.0428692 0.999081 1800.8 909.488)" fill="#C98032"/>
<ellipse cx="13.8146" cy="13.8292" rx="13.8146" ry="13.8292" transform="matrix(-1 -1.90234e-10 -0.0428692 0.999081 1799.92 910.366)" fill="#EAD4B5"/>
<ellipse cx="12.5653" cy="12.5784" rx="12.5653" ry="12.5784" transform="matrix(-1 -1.90234e-10 -0.0428692 0.999081 1798.59 911.472)" fill="#FFFCE5"/>
<path d="M1784.55 931.988C1784.63 931.582 1784.74 931.206 1784.85 930.881L1784.57 931.051L1784.45 931.124L1784.32 931.081L1784.03 930.991C1784.09 931.085 1784.15 931.182 1784.2 931.284C1784.32 931.498 1784.43 931.734 1784.55 931.988Z" fill="black" stroke="black" stroke-width="0.608326"/>
<path d="M1785.44 923.823C1785.44 923.823 1784.04 925.793 1783.88 927.189C1783.73 928.586 1784.63 930.973 1784.63 930.973" stroke="black" stroke-width="0.391432"/>
<path d="M1786.1 918.04C1786.28 918.464 1786.48 918.853 1786.67 919.185L1786.38 919.054L1786.21 918.981L1786.07 919.063L1785.83 919.192C1785.87 919.071 1785.91 918.945 1785.94 918.813C1786 918.576 1786.05 918.317 1786.1 918.04Z" fill="black" stroke="black" stroke-width="0.657126"/>
<path d="M1785.42 923.106C1785.42 923.106 1786.18 922.14 1786.34 921.379C1786.5 920.619 1786.24 919.212 1786.24 919.212" stroke="black" stroke-width="0.392295"/>
<ellipse cx="0.758003" cy="0.75872" rx="0.758003" ry="0.75872" transform="matrix(0.971889 -0.235438 0.234966 0.972004 1784.55 922.867)" fill="#020202"/>
<path d="M1780.63 916.071L1779.84 914.585L1780.02 914.477L1779.87 914.203L1779.09 914.618L1779.23 914.879L1779.34 914.832C1779.41 914.806 1779.46 914.824 1779.49 914.886L1780.28 916.375L1780.1 916.483L1780.24 916.757L1781.03 916.342L1780.89 916.081L1780.78 916.128C1780.74 916.14 1780.71 916.144 1780.69 916.14C1780.67 916.132 1780.65 916.11 1780.63 916.071Z" fill="black"/>
<path d="M1777.97 918.633L1776.59 917.67L1776.7 917.493L1776.45 917.315L1775.94 918.04L1776.19 918.21L1776.26 918.117C1776.31 918.064 1776.36 918.057 1776.42 918.097L1777.8 919.063L1777.69 919.24L1777.95 919.418L1778.45 918.692L1778.21 918.522L1778.13 918.615C1778.11 918.642 1778.08 918.659 1778.06 918.664C1778.04 918.669 1778.01 918.658 1777.97 918.633ZM1777.33 919.553L1775.95 918.59L1776.06 918.412L1775.81 918.234L1775.3 918.96L1775.55 919.13L1775.62 919.037C1775.67 918.983 1775.72 918.976 1775.78 919.017L1777.16 919.982L1777.05 920.159L1777.31 920.337L1777.81 919.612L1777.57 919.442L1777.49 919.535C1777.47 919.562 1777.44 919.578 1777.42 919.584C1777.4 919.588 1777.37 919.578 1777.33 919.553Z" fill="black"/>
<path d="M1776.54 927.709L1775.09 928.565L1774.98 928.391L1774.71 928.549L1775.16 929.311L1775.41 929.16L1775.36 929.051C1775.33 928.986 1775.35 928.936 1775.41 928.9L1776.86 928.042L1776.97 928.216L1777.24 928.057L1776.79 927.296L1776.54 927.446L1776.59 927.556C1776.6 927.59 1776.61 927.618 1776.6 927.64C1776.6 927.663 1776.58 927.686 1776.54 927.709ZM1775.96 929.809L1777.47 929.481L1777.48 929.497L1776.38 930.743L1776.26 930.559L1775.99 930.717L1776.42 931.441L1776.67 931.29L1776.62 931.181C1776.6 931.152 1776.6 931.127 1776.61 931.106C1776.61 931.086 1776.63 931.06 1776.66 931.027L1778.04 929.407L1777.8 928.997L1775.6 929.429L1775.49 929.256L1775.22 929.414L1775.7 930.226L1775.95 930.075L1775.9 929.966C1775.87 929.898 1775.87 929.851 1775.92 929.823C1775.93 929.817 1775.94 929.813 1775.96 929.809Z" fill="black"/>
<path d="M1778.74 933.54L1779.83 932.432L1779.85 932.44L1779.61 934.087L1779.41 934.002L1779.27 934.281L1780.02 934.651L1780.15 934.385L1780.05 934.322C1780.02 934.306 1780.01 934.287 1780 934.265C1779.99 934.246 1779.99 934.215 1780 934.174L1780.26 932.06L1779.83 931.851L1778.24 933.418L1778.05 933.337L1777.91 933.616L1778.76 934.03L1778.89 933.764L1778.78 933.702C1778.72 933.664 1778.7 933.621 1778.72 933.573C1778.73 933.562 1778.73 933.551 1778.74 933.54Z" fill="black"/>
<path d="M1788.16 934.426L1787.99 932.883L1788.01 932.875L1789.13 934.098L1788.94 934.204L1789.07 934.487L1789.83 934.134L1789.71 933.865L1789.59 933.906C1789.56 933.917 1789.54 933.918 1789.52 933.908C1789.5 933.901 1789.47 933.883 1789.44 933.854L1787.97 932.314L1787.54 932.514L1787.75 934.742L1787.56 934.839L1787.69 935.121L1788.55 934.726L1788.43 934.457L1788.31 934.498C1788.24 934.525 1788.2 934.514 1788.17 934.465C1788.17 934.454 1788.16 934.441 1788.16 934.426ZM1789.32 932.163L1790.03 933.69L1789.84 933.787L1789.97 934.069L1790.78 933.698L1790.65 933.429L1790.54 933.47C1790.47 933.493 1790.42 933.472 1790.39 933.408L1789.69 931.878L1789.87 931.78L1789.74 931.498L1788.94 931.869L1789.06 932.138L1789.18 932.097C1789.21 932.087 1789.24 932.084 1789.26 932.09C1789.28 932.099 1789.3 932.123 1789.32 932.163ZM1790.34 931.692L1791.04 933.219L1790.86 933.317L1790.99 933.599L1791.79 933.228L1791.67 932.959L1791.55 933C1791.49 933.023 1791.44 933.002 1791.41 932.938L1790.7 931.407L1790.89 931.31L1790.76 931.028L1789.96 931.399L1790.08 931.668L1790.19 931.627C1790.23 931.616 1790.26 931.614 1790.28 931.62C1790.3 931.628 1790.32 931.652 1790.34 931.692Z" fill="black"/>
<path d="M1793.17 931.352L1792.24 930.114L1792.25 930.099L1793.84 930.572L1793.73 930.765L1793.98 930.94L1794.46 930.247L1794.21 930.079L1794.14 930.172C1794.12 930.197 1794.09 930.211 1794.07 930.213C1794.05 930.217 1794.02 930.214 1793.98 930.204L1791.93 929.634L1791.66 930.026L1792.98 931.835L1792.87 932.013L1793.13 932.189L1793.66 931.411L1793.42 931.243L1793.34 931.337C1793.29 931.396 1793.25 931.411 1793.2 931.38C1793.19 931.374 1793.18 931.364 1793.17 931.352ZM1793.01 928.814L1794.4 929.765L1794.29 929.943L1794.54 930.119L1795.04 929.389L1794.8 929.222L1794.72 929.315C1794.68 929.369 1794.63 929.376 1794.57 929.336L1793.18 928.383L1793.29 928.205L1793.03 928.029L1792.53 928.759L1792.77 928.926L1792.85 928.833C1792.88 928.805 1792.9 928.789 1792.92 928.783C1792.94 928.779 1792.97 928.789 1793.01 928.814ZM1793.64 927.889L1795.03 928.84L1794.92 929.019L1795.18 929.194L1795.68 928.465L1795.43 928.297L1795.36 928.39C1795.31 928.444 1795.26 928.452 1795.2 928.412L1793.81 927.458L1793.92 927.28L1793.66 927.104L1793.16 927.834L1793.41 928.001L1793.48 927.908C1793.51 927.881 1793.53 927.864 1793.55 927.858C1793.58 927.854 1793.61 927.864 1793.64 927.889ZM1794.28 926.964L1795.66 927.916L1795.56 928.094L1795.81 928.27L1796.31 927.54L1796.07 927.372L1795.99 927.466C1795.94 927.52 1795.89 927.527 1795.83 927.487L1794.44 926.533L1794.55 926.355L1794.3 926.179L1793.8 926.909L1794.04 927.077L1794.12 926.983C1794.14 926.956 1794.17 926.939 1794.19 926.933C1794.21 926.929 1794.24 926.939 1794.28 926.964Z" fill="black"/>
<path d="M1794.05 917.662L1793.84 918.515L1792.69 918.639L1792.53 918.471L1792.28 918.676L1792.93 919.459L1793.16 919.267L1793.1 919.176C1793.08 919.137 1793.07 919.103 1793.08 919.072C1793.09 919.041 1793.11 919.023 1793.15 919.02L1793.75 918.948L1793.53 919.678L1793.41 919.55L1793.17 919.749L1793.71 920.396L1793.94 920.207L1793.87 920.113C1793.85 920.073 1793.85 920.012 1793.87 919.931L1794.15 918.933L1795.13 918.838L1795.28 918.981L1795.52 918.776L1794.91 918.03L1794.67 918.221L1794.72 918.299C1794.75 918.341 1794.76 918.378 1794.75 918.408C1794.73 918.436 1794.7 918.452 1794.66 918.456L1794.21 918.513L1794.38 917.906L1794.51 918.04L1794.75 917.841L1794.21 917.197L1793.99 917.386L1794.05 917.48C1794.07 917.52 1794.07 917.581 1794.05 917.662Z" fill="black"/>
<path d="M1790.79 914.501L1790.8 915.38L1789.71 915.786L1789.52 915.662L1789.33 915.923L1790.15 916.52L1790.33 916.277L1790.25 916.204C1790.21 916.172 1790.2 916.141 1790.2 916.109C1790.2 916.076 1790.22 916.052 1790.26 916.04L1790.82 915.821L1790.79 916.583L1790.64 916.489L1790.46 916.741L1791.14 917.235L1791.31 916.995L1791.23 916.919C1791.19 916.886 1791.18 916.828 1791.18 916.743L1791.2 915.708L1792.13 915.372L1792.3 915.475L1792.49 915.214L1791.71 914.645L1791.53 914.888L1791.6 914.951C1791.64 914.985 1791.66 915.018 1791.65 915.05C1791.64 915.081 1791.62 915.104 1791.58 915.119L1791.15 915.286L1791.17 914.655L1791.33 914.753L1791.51 914.501L1790.83 914.01L1790.66 914.25L1790.74 914.325C1790.78 914.358 1790.79 914.417 1790.79 914.501ZM1789.29 915.364L1790.27 914.002L1790.45 914.115L1790.63 913.864L1789.92 913.344L1789.74 913.584L1789.83 913.664C1789.89 913.711 1789.89 913.763 1789.85 913.821L1788.86 915.185L1788.69 915.072L1788.5 915.324L1789.22 915.843L1789.39 915.603L1789.3 915.524C1789.28 915.498 1789.26 915.475 1789.26 915.453C1789.25 915.429 1789.26 915.399 1789.29 915.364Z" fill="black"/>
<path d="M1785.53 912.369L1786.69 913.92C1786.76 914.007 1786.76 914.127 1786.69 914.214L1785.53 915.765C1785.43 915.896 1785.24 915.896 1785.14 915.765L1783.98 914.214C1783.91 914.127 1783.91 914.007 1783.98 913.92L1785.14 912.369C1785.24 912.239 1785.43 912.239 1785.53 912.369Z" fill="#9D1402"/>
<path d="M1775.46 925.559C1775.36 925.371 1775.28 925.05 1775.23 924.682C1775.22 924.636 1775.28 924.603 1775.32 924.628C1775.7 924.864 1776.48 924.906 1776.62 924.357C1776.8 923.606 1776.27 923.231 1775.74 923.273C1775.69 923.277 1775.63 923.18 1775.65 923.134C1775.87 922.708 1775.83 921.907 1774.95 921.907C1773.99 921.907 1774.07 922.785 1774.28 923.213C1774.3 923.252 1774.26 923.302 1774.22 923.296C1773.39 923.18 1773.06 923.713 1773.25 924.357C1773.42 924.922 1774.25 924.797 1774.59 924.634C1774.63 924.612 1774.72 924.653 1774.71 924.701C1774.67 925.004 1774.55 925.342 1774.45 925.573C1774.43 925.605 1774.46 925.642 1774.49 925.642H1775.42C1775.46 925.642 1775.48 925.595 1775.46 925.559Z" fill="black"/>
<path fill-rule="evenodd" clip-rule="evenodd" d="M1784.43 933.248C1784.03 932.84 1783.51 932.686 1783.13 932.906C1782.65 933.185 1782.54 933.886 1782.93 934.558C1783.05 934.761 1783.2 934.937 1783.36 935.077L1783.35 935.078L1784.46 936.089L1785.56 935.048H1785.56C1785.72 934.892 1785.87 934.705 1785.99 934.496C1786.38 933.824 1786.19 933.187 1785.71 932.91C1785.33 932.692 1784.82 932.845 1784.43 933.248Z" fill="#9D1402"/>
<path fill-rule="evenodd" clip-rule="evenodd" d="M1794.46 922.911C1794.3 923.058 1794.15 923.242 1794.02 923.459C1793.68 924.02 1793.8 924.634 1794.25 924.896C1794.53 925.061 1794.9 925.002 1795.23 924.777C1795.24 924.896 1795.26 925.022 1795.23 925.128C1795.19 925.293 1795.06 925.518 1794.99 925.631C1794.97 925.662 1794.99 925.703 1795.03 925.703H1796.02C1796.05 925.703 1796.07 925.668 1796.06 925.637C1796.01 925.525 1795.9 925.296 1795.86 925.128C1795.83 925.025 1795.85 924.907 1795.86 924.795C1796.17 925.017 1796.51 925.084 1796.76 924.936C1797.18 924.693 1797.41 924.092 1796.95 923.446C1796.81 923.253 1796.66 923.074 1796.51 922.921L1795.5 921.906L1794.46 922.911Z" fill="black"/>
</g>
<defs>
<linearGradient id="paint0_linear_1_336" x1="1017" y1="-168" x2="1231.84" y2="1415.86" gradientUnits="userSpaceOnUse">
<stop offset="0.115085" stop-color="#C4E6FB"/>
<stop offset="0.564464" stop-color="#C1E8FD"/>
</linearGradient>
<linearGradient id="paint1_linear_1_336" x1="846.796" y1="796.464" x2="845.541" y2="1122.85" gradientUnits="userSpaceOnUse">
<stop stop-color="#A0E475"/>
<stop offset="1" stop-color="#4FAE89"/>
</linearGradient>
<linearGradient id="paint2_linear_1_336" x1="846.796" y1="796.464" x2="845.541" y2="1122.85" gradientUnits="userSpaceOnUse">
<stop stop-color="#A0E475"/>
<stop offset="1" stop-color="#4FAE89"/>
</linearGradient>
<radialGradient id="paint3_radial_1_336" cx="0" cy="0" r="1" gradientTransform="matrix(4.75803 34.6534 -57.5987 7.558 214.07 923.255)" gradientUnits="userSpaceOnUse">
<stop stop-color="#E8A982"/>
<stop offset="1" stop-color="#E64B73"/>
</radialGradient>
<linearGradient id="paint4_linear_1_336" x1="213.327" y1="898.75" x2="213.137" y2="1019" gradientUnits="userSpaceOnUse">
<stop stop-color="#D6AA80"/>
<stop offset="1" stop-color="#966036"/>
</linearGradient>
<linearGradient id="paint5_linear_1_336" x1="205.645" y1="908.812" x2="190.314" y2="896.172" gradientUnits="userSpaceOnUse">
<stop stop-color="#D6AA80"/>
<stop offset="0.838809" stop-color="#966036"/>
</linearGradient>
<linearGradient id="paint6_linear_1_336" x1="220.653" y1="909.71" x2="234.201" y2="895.177" gradientUnits="userSpaceOnUse">
<stop stop-color="#D6AA80"/>
<stop offset="0.838809" stop-color="#966036"/>
</linearGradient>
<linearGradient id="paint7_linear_1_336" x1="215.607" y1="885.135" x2="213.781" y2="913.279" gradientUnits="userSpaceOnUse">
<stop stop-color="#D6AA80"/>
<stop offset="1" stop-color="#B0814F"/>
</linearGradient>
<linearGradient id="paint8_linear_1_336" x1="223.782" y1="879.38" x2="231.626" y2="871.673" gradientUnits="userSpaceOnUse">
<stop stop-color="#D6AA80"/>
<stop offset="1" stop-color="#B0814F"/>
</linearGradient>
<linearGradient id="paint9_linear_1_336" x1="204.586" y1="881.066" x2="195.224" y2="871.895" gradientUnits="userSpaceOnUse">
<stop stop-color="#D6AA80"/>
<stop offset="1" stop-color="#B0814F"/>
</linearGradient>
<radialGradient id="paint10_radial_1_336" cx="0" cy="0" r="1" gradientTransform="matrix(2.64277 19.2477 -31.9923 4.19797 75.2883 1009.15)" gradientUnits="userSpaceOnUse">
<stop stop-color="#E8A982"/>
<stop offset="1" stop-color="#E64B73"/>
</radialGradient>
<linearGradient id="paint11_linear_1_336" x1="41.7995" y1="974.757" x2="102.002" y2="964.38" gradientUnits="userSpaceOnUse">
<stop stop-color="#438BFF"/>
<stop offset="1" stop-color="#1651B2"/>
</linearGradient>
<radialGradient id="paint12_radial_1_336" cx="0" cy="0" r="1" gradientTransform="matrix(3.82412 37.645 -62.558 5.97729 1810.18 937.622)" gradientUnits="userSpaceOnUse">
<stop stop-color="#E8A982"/>
<stop offset="1" stop-color="#E64B73"/>
</radialGradient>
<linearGradient id="paint13_linear_1_336" x1="1807.31" y1="893.164" x2="1796.44" y2="925.636" gradientUnits="userSpaceOnUse">
<stop stop-color="#D6AA80"/>
<stop offset="0.915339" stop-color="#966036"/>
</linearGradient>
<linearGradient id="paint14_linear_1_336" x1="1789.15" y1="893.701" x2="1778.41" y2="924.117" gradientUnits="userSpaceOnUse">
<stop stop-color="#7B573C"/>
<stop offset="1" stop-color="#2A1D13"/>
</linearGradient>
<linearGradient id="paint15_linear_1_336" x1="1812.04" y1="902.129" x2="1812.32" y2="1077.01" gradientUnits="userSpaceOnUse">
<stop stop-color="#D6AA80"/>
<stop offset="1" stop-color="#966036"/>
</linearGradient>
<linearGradient id="paint16_linear_1_336" x1="1818.79" y1="916.22" x2="1845.21" y2="904.581" gradientUnits="userSpaceOnUse">
<stop stop-color="#D6AA80"/>
<stop offset="0.838809" stop-color="#966036"/>
</linearGradient>
<linearGradient id="paint17_linear_1_336" x1="1825.75" y1="924.471" x2="1856.5" y2="910.726" gradientUnits="userSpaceOnUse">
<stop stop-color="#7B573C"/>
<stop offset="1" stop-color="#2A1D13"/>
</linearGradient>
<linearGradient id="paint18_linear_1_336" x1="1812.67" y1="868.972" x2="1812.7" y2="937.507" gradientUnits="userSpaceOnUse">
<stop offset="0.296015" stop-color="#D6AA80"/>
<stop offset="1" stop-color="#966036"/>
</linearGradient>
<linearGradient id="paint19_linear_1_336" x1="1861.35" y1="774.165" x2="1826.73" y2="879.019" gradientUnits="userSpaceOnUse">
<stop stop-color="#2A1D13"/>
<stop offset="1" stop-color="#796658"/>
</linearGradient>
<linearGradient id="paint20_linear_1_336" x1="1765.04" y1="771.706" x2="1797.48" y2="878.998" gradientUnits="userSpaceOnUse">
<stop stop-color="#2A1D13"/>
<stop offset="1" stop-color="#796658"/>
</linearGradient>
<linearGradient id="paint21_linear_1_336" x1="1795.35" y1="872.947" x2="1730.71" y2="854.549" gradientUnits="userSpaceOnUse">
<stop stop-color="#D6AA80"/>
<stop offset="1" stop-color="#966036"/>
</linearGradient>
<linearGradient id="paint22_linear_1_336" x1="1827.74" y1="872.851" x2="1860.84" y2="848.57" gradientUnits="userSpaceOnUse">
<stop stop-color="#D6AA80"/>
<stop offset="1" stop-color="#966036"/>
</linearGradient>
<clipPath id="clip0_1_336">
<rect width="1920" height="1080" fill="white"/>
</clipPath>
</defs>
</svg>
